<svg viewBox="0 0 1605 817" width="321" height="163.4" xmlns="http://www.w3.org/2000/svg"><g fill="#012730"><path d="M798 259l15-74 5-8c3-3 5-3 8-3h27c5 0 8 2 11 5a14 14 0 0 1 2 12l-4 17c-1 4-3 8-7 11-4 4-8 5-13 5h-27l-7 35-2 1h-8v-1m19-44h26c2 0 4 0 6-2l3-5 4-18v-1l-1-4-5-2h-25l-1 1zm46 44l16-74c1-3 2-6 5-8s5-3 8-3h26c6 0 9 2 12 5a14 14 0 0 1 2 12l-4 17c-1 4-3 8-7 11-4 4-8 5-13 5h-5 1c3 0 5 2 6 5l10 28v2l-1 1h-8l-1-1-1-2-11-30c-1-2-2-3-4-3h-13l-7 35-2 1h-8l-1-1m20-43h26c2 0 4-1 5-3 2-1 3-3 3-5l4-18v-1l-1-4-4-2h-25l-2 1zm50 43l18-84 1-1h8l1 1-17 84-2 1h-8l-1-1m27 0l1-7 1-1h34l5-1 2-4 2-10 1-4c0-2-1-3-2-3l-27-13c-2 0-4-1-5-3l-2-4v-4l1-5 3-12c1-4 3-8 6-10 4-2 7-4 11-4h35l1 2-2 6-1 1h-33l-5 2-3 4-2 11v4l1 4 29 12 4 3 1 4 1 3-1 1v5l-3 10c-1 5-3 8-6 11-3 2-7 3-11 3h-35c-1 0-2 0-1-1m65 0l17-84 2-1h8l1 1-8 36h39l8-36 1-1h8l1 1-17 84-2 1h-8l-1-1 8-39h-39l-8 39-1 1h-8l-1-1m86-77l1-7 2-1h60l1 1-2 7-1 1h-25l-16 76-1 1h-8l-1-1 16-76h-25l-1-1m57 77l18-84 1-1h8l1 1-18 84-1 1h-8l-1-1m28 0l17-77 3-6c2-2 4-2 7-2h1c6 0 9 1 9 5l14 71 1 5 1-5 16-74 1-2h8l1 1v1l-16 76-4 6c-2 2-4 3-7 3h-2c-6 0-9-2-9-5l-13-69-1-6-2 6-15 72-1 1h-8l-1-1m72 0l1-2 42-79c2-2 4-4 7-4h5c3 0 4 2 5 4l9 79v2l-1 1h-7l-1-1-1-1-3-24h-33l-13 24-3 2h-7v-1m28-34h27l-4-36v-8l-3 8zM798 380l18-83 1-2h8c1 0 2 1 1 2l-17 83-2 1h-8l-1-1m29 0l16-77 4-6c2-2 4-2 6-2h2c5 0 8 1 9 5l13 71 1 5 1-5 16-74 1-2h8l1 1v1l-16 76c0 2-1 4-4 6l-7 3h-1c-6 0-9-2-10-5l-13-69-1-6-1 6-15 72-2 1h-8v-1m87-77l1-6 1-2h60l1 1-1 7-1 1h-25l-16 76-2 1h-8l-1-1 16-76h-24c-1 0-2 0-1-1m56 68l14-65 4-7c2-2 6-4 9-4h39l1 2-2 6-1 1h-38l-1 2-6 26h31l1 1-2 7-1 1h-31l-6 30 1 1h37l1 1-1 7-1 1h-39a8 8 0 0 1-9-8v-2m61 9l16-74 4-7c2-2 6-4 9-4h26c5 0 9 2 11 5a14 14 0 0 1 2 12l-3 17c-1 4-3 8-7 12s-8 5-13 5h-5 1c3 0 5 1 6 4l10 28v2l-1 1h-8l-1-1-1-1-11-31c-1-2-2-3-4-3h-13l-7 35-2 1h-8l-1-1m20-43h26l5-2c2-1 3-4 3-6l4-17v-2l-1-4-5-2h-24l-2 1zm48 43l17-77 3-6c2-2 4-2 7-2h1c6 0 9 1 9 5l14 71 1 5 1-5 16-74 1-2h8l1 1v1l-16 76-4 6c-2 2-4 3-7 3h-2c-6 0-9-2-9-5l-13-69-1-6-2 6-15 72-1 1h-8l-1-1m72 0l1-2 42-79c2-2 4-4 7-4h5c3 0 4 2 5 4l9 79v2l-1 1h-7l-1-1-1-1-3-24h-33l-13 24-3 2h-7v-1m28-33h27l-4-37v-7l-3 7zm49-44l1-6 2-2h60l1 1-2 7-1 1h-25l-16 76-2 1h-8v-1l16-76h-25l-1-1m57 77l17-83 2-2h8l1 2-18 83-1 1h-8l-1-1m31-16l11-52c1-4 4-8 7-12 4-3 9-5 14-5h22c5 0 9 2 11 5l3 9v3l-12 52c-1 5-3 9-7 12s-8 5-13 5h-23c-5 0-8-2-11-5l-2-8v-4m11 1l-1 1 2 4c1 2 2 2 4 2h21c2 0 4 0 6-2s3-3 3-5l12-53v-2l-2-4-4-2h-21l-6 3c-2 2-3 3-3 5zm58 15l17-77 3-6c2-2 5-2 7-2h2c5 0 8 1 8 5l14 71 1 5 1-5 16-74 1-2h8l1 1v1l-16 76c0 2-2 4-4 6s-4 3-7 3h-2c-5 0-9-2-9-5l-13-69-1-6-1 6-15 72-2 1h-8l-1-1m72 0l1-2 42-79c2-2 4-4 7-4h5c3 0 5 2 5 4l9 79v2l-1 1h-7l-1-1-1-1-3-24h-33l-13 24-3 2h-7v-1m28-33h27l-4-37v-7l-3 7zm54 24l16-74 1-2h8l1 2-16 74 1 1h34l1 2-2 6-1 1h-35c-3 0-5-1-7-3l-1-4v-3M790 501l1-2 43-79c1-2 4-4 7-4h4c4 0 5 2 6 4l9 79v2l-1 1h-8l-1-2-3-23h-33l-13 23c-1 2-2 2-3 2h-7l-1-1m29-33h27l-4-37v-7l-3 7zm53 33l17-83 2-1h8l1 1-18 83-1 1h-9v-1m29 0l16-74c0-3 2-5 4-7s5-3 8-3h27c5 0 9 1 11 5a14 14 0 0 1 2 11l-4 17c-1 5-3 8-7 12-3 3-8 5-13 5h-4c4 0 6 1 7 5l9 28 1 1-2 1h-7l-2-1-1-1-11-31-4-2h-13l-7 34-1 1h-8l-1-1m19-43h26l6-2 3-5 4-18v-2l-1-3c-1-2-3-3-5-3h-25l-1 2zm50 43l15-74 5-7c2-2 5-3 8-3h27c5 0 9 1 11 5a14 14 0 0 1 2 11l-4 17c-1 4-3 8-7 12-4 3-8 5-13 5h-27l-7 34-1 1h-8l-1-1m19-43h26l6-2 3-6 4-17v-2l-1-3c-1-2-3-3-5-3h-25l-1 2zm49 28l11-53c1-4 3-8 7-11 4-4 8-5 13-5h23c5 0 9 1 11 5 2 2 3 5 3 8l-1 3-11 53c-1 4-3 8-7 11s-8 5-13 5h-23c-5 0-9-1-11-5-2-2-3-5-3-8l1-3m10 0v2l1 3c1 2 3 2 5 2h21c2 0 4 0 5-2l4-5 11-53v-2l-1-3c-1-2-3-3-5-3h-21c-2 0-4 1-5 3l-3 5zm60 15l16-74c0-3 2-5 4-7s5-3 8-3h27c5 0 9 1 11 5a14 14 0 0 1 2 11l-4 17c-1 5-3 8-7 12-3 3-8 5-13 5h-5 1c3 0 6 1 7 5l9 28 1 1-2 1h-7l-2-1-1-1-11-31-4-2h-13l-7 34-1 1h-8l-1-1m19-43h26l6-2c1-2 3-3 3-5l4-18v-2l-1-3c-1-2-3-3-5-3h-25l-1 2zm55-34l2-6 1-1h61v1l-1 6-2 1h-25l-16 76-1 1h-8l-1-1 16-76h-25l-1-1M791 620l42-78c1-1 2-3 4-3l6-2h5l6 2 2 3 9 78-1 3-3 1h-13c-1 0-2-1-2-3l-3-21h-22l-12 21-3 3h-12l-3-1v-3m38-35h13l-1-28zm46 35l17-79 1-2 4-1h34c6 0 11 2 14 6l3 9-1 4-10 47c-1 5-4 10-8 14s-10 6-16 6h-35l-2-2-1-2m21-12h17l4-2 1-3 10-45v-3l-3-2h-17zm52 9l16-73 3-4c1-2 3-2 5-2h44l3 1 1 2-1 1-1 8-2 2-3 1h-32v2l-4 16h25l3 1v3l-1 8-2 3-3 1h-25l-5 20 1 1h31l3 1 1 2-2 9-2 2-3 1h-44l-4-1-2-4v-1m66 1l15-71c1-7 7-10 16-10l9 2c2 1 4 3 4 5l5 54 28-53 6-7 10-1c5 0 9 1 11 3l2 5-1 2-15 71-2 4-4 1h-8l-4-1-1-3v-1l11-51-26 51-4 5-8 1-7-1-2-5-5-51-11 51c0 2-1 3-3 4l-4 2h-7l-4-2-1-3v-1m128 25l2-9 1-3 4-1h11l1-1 19-87 1-3 3-1h11l3 1v3l-19 91c-1 4-3 7-6 10s-7 3-11 3h-17l-3-1-1-2h1m46-23l42-78c1-1 2-3 4-3l6-2h5l6 2 2 3 9 78-1 3-3 1h-12c-2 0-2-1-3-3l-2-21h-23l-11 21-4 3h-12l-2-1-1-2v-1m38-35h13l-1-28zm43 35l2-9 1-2 4-1h32l1-2 2-8-1-4-23-10c-3-1-5-3-6-6-2-2-2-3-2-5v-1l1-7 3-13c1-4 3-8 6-10 4-3 8-4 12-4h35l3 1 1 2-1 1-1 8-2 3-3 1h-31l-2 2-2 10v2l25 11 5 4 2 5v9l-3 13c-1 4-3 8-7 10-3 2-7 4-11 4h-36l-3-1-1-2v-1m69 0l16-79 2-2 3-1h11l3 1v2l-6 31h25l7-31 2-2 3-1h10l3 1 1 2-17 79-2 2-3 1h-10l-3-1-1-2 7-33h-26l-6 33-2 2-3 1h-11l-3-1v-2m74 0l42-78 3-3 6-2h6l5 2 2 3 9 78-1 3-2 1h-13c-1 0-2-1-2-3l-3-21h-23l-11 21-3 3h-13l-2-1v-3m37-35h13v-28zm46 35l16-75 4-5c1-2 4-2 6-2h30c6 0 11 2 13 6a17 17 0 0 1 3 13l-3 15c-1 5-3 8-7 12-3 3-6 5-10 5l1 3 9 27v1l-2 3-2 1h-12l-2-1-2-2-8-27-1-1v-1h-8l-6 28-2 3-3 1h-10l-3-2-1-2m29-45h17c2 0 3-1 4-4l3-13v-2c0-2-1-3-3-3h-15l-2 2zm44 45l17-79 1-2 4-1h10l3 1 1 2-17 79-2 2-3 2h-11l-2-1-1-2v-1m-991-36c-11 20-20 39-28 62l118-22C839 99 291-28 107 402c40-6 80 1 120 23l9-15c-34-19-69-26-103-20C289 26 754 134 607 579z"/><path d="M0 817c395-90 429-111 552-228l-45 8s38-72 58-118C441 634 452 691 34 792zm169-614C379 263 481-87 719 35 481-88 352 147 169 203"/><path d="M181 151c92 31 145-122 249-62-103-60-166 41-249 62"/></g></svg>