<svg id="Layer_1" data-name="Layer 1" xmlns="http://www.w3.org/2000/svg" viewBox="0 0 154.07 40.33"><defs><style>.cls-1{fill:#cfd845;}.cls-2{fill:#fff;}</style></defs><path class="cls-1" d="M2.28,40,0,25.09H2.16l1.1,7.36.61,5.42H4L6.7,32.45l4-7.36h2.37L4.91,40Z"/><path class="cls-1" d="M15.53,40a2.11,2.11,0,0,1-1.52-.5,1.82,1.82,0,0,1-.5-1.32,3.61,3.61,0,0,1,.09-.69l2.48-12.38H18.3L15.7,38h2.11l-.38,2ZM18,21.59a1.25,1.25,0,0,1-.94-.3,1,1,0,0,1-.27-.71,2.37,2.37,0,0,1,0-.24,5.68,5.68,0,0,1,.11-.56,1.46,1.46,0,0,1,.47-.86,1.66,1.66,0,0,1,1.08-.3,1.22,1.22,0,0,1,.94.3,1,1,0,0,1,.28.71c0,.06,0,.14,0,.25a5.28,5.28,0,0,1-.1.56,1.45,1.45,0,0,1-.47.85A1.71,1.71,0,0,1,18,21.59Z"/><path class="cls-1" d="M25.69,40.33a7.48,7.48,0,0,1-3.23-.71,5.9,5.9,0,0,1-2.4-2l1.53-1.36a5.62,5.62,0,0,0,1.79,1.57,4.81,4.81,0,0,0,2.31.55,4,4,0,0,0,2.42-.71,2.39,2.39,0,0,0,1-2.07,1.88,1.88,0,0,0-.45-1.27,3,3,0,0,0-1.75-.79l-1.12-.23a11.71,11.71,0,0,1-1.58-.45,4.24,4.24,0,0,1-1.27-.72,3.23,3.23,0,0,1-.83-1.1,3.59,3.59,0,0,1-.31-1.58,4.65,4.65,0,0,1,.34-1.77,4.12,4.12,0,0,1,1-1.51,5.18,5.18,0,0,1,1.73-1,6.92,6.92,0,0,1,2.43-.39,6.49,6.49,0,0,1,2.83.57,5.65,5.65,0,0,1,2,1.63L30.6,28.3a4,4,0,0,0-1.33-1.14,4.57,4.57,0,0,0-2.17-.46,3.44,3.44,0,0,0-2.41.72,2.4,2.4,0,0,0-.76,1.83,1.83,1.83,0,0,0,.45,1.27,3.13,3.13,0,0,0,1.71.76l1.13.23a9.84,9.84,0,0,1,1.63.46,4.57,4.57,0,0,1,1.26.75,3.27,3.27,0,0,1,.8,1.13,3.89,3.89,0,0,1,.29,1.59,4.83,4.83,0,0,1-.42,2A4.18,4.18,0,0,1,29.63,39a5.21,5.21,0,0,1-1.75,1A6.7,6.7,0,0,1,25.69,40.33Z"/><path class="cls-1" d="M36.74,40a2.08,2.08,0,0,1-1.51-.5,1.79,1.79,0,0,1-.51-1.32,3.61,3.61,0,0,1,.09-.69l2.48-12.38h2.23L36.92,38H39l-.38,2ZM39.2,21.59a1.23,1.23,0,0,1-.94-.3,1,1,0,0,1-.27-.71,2.37,2.37,0,0,1,0-.24,4.87,4.87,0,0,1,.1-.56,1.52,1.52,0,0,1,.48-.86,1.66,1.66,0,0,1,1.08-.3,1.23,1.23,0,0,1,.94.3,1.05,1.05,0,0,1,.27.71c0,.06,0,.14,0,.25s0,.29-.1.56a1.46,1.46,0,0,1-.48.85A1.66,1.66,0,0,1,39.2,21.59Z"/><path class="cls-1" d="M44.8,40a2.09,2.09,0,0,1-1.52-.5,1.82,1.82,0,0,1-.5-1.32,4.41,4.41,0,0,1,.08-.69L45,27.05H42.78l.37-2h1.13a1.4,1.4,0,0,0,1.08-.32,2.46,2.46,0,0,0,.42-1.1L46.33,21h2.05l-.81,4.13h3.15l-.38,2H47.19L45,38h2.92l-.38,2Z"/><path class="cls-2" d="M58.86,30.63,55.36,34l-1.21,6H51l4-20.15h3.15l-2,10h.17l3.32-3.52,6.44-6.5H70l-8.72,8.72L66.53,40H63.1Z"/><path class="cls-2" d="M74.1,40.33A5.48,5.48,0,0,1,70,38.74a6.33,6.33,0,0,1-1.56-4.62A11.32,11.32,0,0,1,69,30.46a9.52,9.52,0,0,1,1.6-3,7.49,7.49,0,0,1,2.44-2.05,6.53,6.53,0,0,1,3.11-.75,5.47,5.47,0,0,1,4.1,1.58,6.33,6.33,0,0,1,1.56,4.62,11.31,11.31,0,0,1-.58,3.68,9.68,9.68,0,0,1-1.6,3,7.62,7.62,0,0,1-2.44,2A6.53,6.53,0,0,1,74.1,40.33Zm.23-2.51a3.37,3.37,0,0,0,2.46-1,5.71,5.71,0,0,0,1.46-3.05l.49-2.4a3.64,3.64,0,0,0,.09-.53,5.79,5.79,0,0,0,0-.61A3.25,3.25,0,0,0,78.12,28a2.76,2.76,0,0,0-2.18-.82,3.4,3.4,0,0,0-2.46,1A5.75,5.75,0,0,0,72,31.23l-.49,2.41a4.51,4.51,0,0,0-.09.53,5.74,5.74,0,0,0,0,.6A3.22,3.22,0,0,0,72.15,37,2.76,2.76,0,0,0,74.33,37.82Z"/><path class="cls-2" d="M89.11,40.33a7.94,7.94,0,0,1-3.34-.7,5.92,5.92,0,0,1-2.47-2l2-1.79a5.29,5.29,0,0,0,1.66,1.45,4.48,4.48,0,0,0,2.23.52,3.51,3.51,0,0,0,2.24-.63,2,2,0,0,0,.79-1.69,1.56,1.56,0,0,0-.37-1,2.46,2.46,0,0,0-1.47-.64l-1.3-.23a6.2,6.2,0,0,1-2.92-1.22A3.28,3.28,0,0,1,85,29.66a5.13,5.13,0,0,1,.36-1.9,4.53,4.53,0,0,1,1.08-1.6A5.25,5.25,0,0,1,88.3,25a7.14,7.14,0,0,1,2.57-.41,6.3,6.3,0,0,1,5.19,2.28l-2,1.8a4,4,0,0,0-1.36-1.13,4.29,4.29,0,0,0-2-.44,3,3,0,0,0-2.06.6A2,2,0,0,0,88,29.28a1.48,1.48,0,0,0,.39,1A2.59,2.59,0,0,0,89.8,31l1.3.2A5.94,5.94,0,0,1,94,32.41a3.43,3.43,0,0,1,1.07,2.74,5,5,0,0,1-.42,2.07,4.7,4.7,0,0,1-1.2,1.63,5.49,5.49,0,0,1-1.89,1.09A7.48,7.48,0,0,1,89.11,40.33Z"/><path class="cls-2" d="M103.83,40.33a5.48,5.48,0,0,1-4.1-1.59,6.33,6.33,0,0,1-1.56-4.62,11.32,11.32,0,0,1,.58-3.66,9.52,9.52,0,0,1,1.6-3,7.49,7.49,0,0,1,2.44-2.05,6.53,6.53,0,0,1,3.11-.75,5.47,5.47,0,0,1,4.1,1.58,6.33,6.33,0,0,1,1.56,4.62,11.31,11.31,0,0,1-.58,3.68,9.68,9.68,0,0,1-1.6,3,7.62,7.62,0,0,1-2.44,2A6.53,6.53,0,0,1,103.83,40.33Zm.23-2.51a3.41,3.41,0,0,0,2.47-1A5.78,5.78,0,0,0,108,33.72l.49-2.4a3.64,3.64,0,0,0,.09-.53,5.79,5.79,0,0,0,0-.61,3.25,3.25,0,0,0-.74-2.22,2.76,2.76,0,0,0-2.18-.82,3.4,3.4,0,0,0-2.46,1,5.75,5.75,0,0,0-1.46,3.05l-.49,2.41a4.51,4.51,0,0,0-.09.53,5.74,5.74,0,0,0,0,.6,3.22,3.22,0,0,0,.74,2.22A2.76,2.76,0,0,0,104.06,37.82Z"/><path class="cls-2" d="M116,40l-2.11-15h2.94l.84,6.67.55,5.6h.14l2.63-5.6L124.47,25h3.2l-8,15Z"/><path class="cls-2" d="M133.21,40.33a5.49,5.49,0,0,1-4.1-1.59,6.33,6.33,0,0,1-1.56-4.62,11.59,11.59,0,0,1,.58-3.66,9.94,9.94,0,0,1,1.6-3,7.71,7.71,0,0,1,2.44-2.05,6.54,6.54,0,0,1,3.12-.75,5.48,5.48,0,0,1,4.1,1.58A6.33,6.33,0,0,1,141,30.83a11.58,11.58,0,0,1-.58,3.68,10.12,10.12,0,0,1-1.6,3,7.84,7.84,0,0,1-2.44,2A6.54,6.54,0,0,1,133.21,40.33Zm.23-2.51a3.39,3.39,0,0,0,2.47-1,5.78,5.78,0,0,0,1.46-3.05l.49-2.4a2.69,2.69,0,0,0,.08-.53,5.79,5.79,0,0,0,0-.61,3.25,3.25,0,0,0-.73-2.22,2.77,2.77,0,0,0-2.18-.82,3.42,3.42,0,0,0-2.47,1,5.82,5.82,0,0,0-1.46,3.05l-.49,2.41a3.08,3.08,0,0,0-.08.53,5.74,5.74,0,0,0,0,.6,3.21,3.21,0,0,0,.73,2.22A2.78,2.78,0,0,0,133.44,37.82Z"/><polygon class="cls-1" points="103.61 9.89 103.36 13.9 107.09 15.39 103.2 16.38 102.94 20.39 100.79 16.99 96.9 17.99 99.46 14.89 97.31 11.5 101.05 12.98 103.61 9.89"/><polygon class="cls-1" points="114.57 4.29 112.77 7.88 115.63 10.71 111.65 10.1 109.85 13.69 109.2 9.72 105.23 9.12 108.8 7.27 108.15 3.31 111 6.13 114.57 4.29"/><polygon class="cls-1" points="126.85 3.42 123.78 6.01 125.31 9.73 121.89 7.62 118.83 10.22 119.78 6.32 116.36 4.21 120.37 3.9 121.32 0 122.84 3.72 126.85 3.42"/><polygon class="cls-1" points="138.49 7.41 134.66 8.6 134.61 12.62 132.28 9.34 128.45 10.54 130.85 7.32 128.53 4.04 132.33 5.32 134.73 2.1 134.69 6.12 138.49 7.41"/><polygon class="cls-1" points="147.65 15.63 143.65 15.23 142.04 18.91 141.18 14.98 137.18 14.59 140.65 12.56 139.79 8.63 142.79 11.3 146.26 9.28 144.65 12.96 147.65 15.63"/><polygon class="cls-1" points="152.87 26.78 149.34 24.85 146.42 27.6 147.16 23.66 143.64 21.73 147.62 21.22 148.37 17.27 150.09 20.9 154.07 20.39 151.15 23.14 152.87 26.78"/></svg>