<?xml version="1.0" encoding="utf-8"?>
<!-- Generator: Adobe Illustrator 26.0.2, SVG Export Plug-In . SVG Version: 6.00 Build 0)  -->
<svg version="1.1" id="Layer_1" xmlns="http://www.w3.org/2000/svg" xmlns:xlink="http://www.w3.org/1999/xlink" x="0px" y="0px"
	 viewBox="0 0 40.3 40.3" style="enable-background:new 0 0 40.3 40.3;" xml:space="preserve">
<style type="text/css">
	.st0{fill:#DDC047;}
	.st1{fill:none;stroke:#DDC047;stroke-width:1.0188;stroke-miterlimit:10;}
	.st2{fill:none;stroke:#283EBF;stroke-miterlimit:10;}
	.st3{fill:#D0A650;}
	.st4{fill:#244AA5;}
	.st5{fill:#00089E;}
	.st6{fill:#2FBBF7;}
	.st7{fill:#CFD845;}
	.st8{fill:#FFFFFF;}
	.st9{fill:#0A3232;}
	.st10{fill:#50A517;}
	.st11{fill:#2F42F4;}
	.st12{fill:#0810A6;}
	.st13{fill:#C8E1AF;}
	.st14{fill:#55A603;}
	.st15{fill:#8A56AC;}
	.st16{fill:#00D9F5;}
	.st17{fill:#FFC4A3;}
	.st18{fill:#1E2952;}
	.st19{fill:#F26B9A;}
	.st20{fill:#F0F0EE;}
	.st21{fill:#F0801F;}
</style>
<text transform="matrix(1 0 0 1 -954.1032 -300.8036)"><tspan x="0" y="0" style="fill:#283EBF; font-family:'Montserrat-Black'; font-size:139.7819px;">Visit</tspan><tspan x="0" y="129.7" style="fill:#283EBF; font-family:'Montserrat-Black'; font-size:139.7819px;">Kosovo</tspan></text>
<path class="st0" d="M333,394.2c-12.3-22.2-26-31-36.5-34.9c-15.9-5.9-26.5-1.1-44.9-7.7c-15.6-5.6-26.4-15.7-33.1-23.5
	c-0.8-0.4-4.8-2.9-6.2-8.1c-0.9-3.3-0.5-6.9,1.3-10.1c25-16.5,33.8-33.2,37.2-45c5.9-20.1-1.4-33.3,7-52.6
	c7.1-16.4,20.8-26.2,30.5-31.7c0.4-0.8,2.9-4.8,8.1-6.2c3.3-0.9,6.9-0.5,10.1,1.3l129.4,74.7c2.3,4,5.1,10.4,4.9,18.2
	c-0.9,27.6-39.2,27.2-52.9,62.1c-5.4,13.8-17.6,60.1-21.8,67.3c0,0,0,0.1-0.6,0.2C354.6,401.4,342.8,399.9,333,394.2z"/>
<image style="overflow:visible;" width="1600" height="1067" xlink:href="526469C.jpg"  transform="matrix(0.2431 0 0 0.2431 -1716.8541 -486.0323)">
</image>
<path class="st1" d="M-2393,638.7c-1.8-33.3-12.5-47.4-22.1-54c-14.4-9.9-28.2-4.3-48-14.3c-17.5-8.9-27.7-24-33.7-35.4
	c5.7-7.4,14.7-17.6,28.3-26.1c20.2-12.8,33.1-11,46.8-20.1c11.3-7.5,23.9-22.8,28.6-57.5c19.7,11.8,31.3,24.7,38.3,34.6
	c14.5,20.4,15,35.4,31.4,50.7c11.6,10.8,24.7,15.8,34.1,18.4c-4.8,23.7-14.8,35.8-22.4,42.4c-18.4,15.8-37,11.2-57.7,27.9
	C-2382.8,616.1-2389.6,629.8-2393,638.7z"/>
<g>
	<path class="st0" d="M289.9,1013.9c4-2.6,6.6-6.7,10.2-9.7c7.4-6.4,18-7.5,27.7-6.9c9.8,0.6,19.5,2.6,29.2,1.4
		c16.3-2,31.1-13.9,36.6-29.4c0.9-2.4,1.4-5.4-0.3-7.4c-1.3-1.5-3.5-1.9-5.4-2.4c-9.8-2.5-16.9-11.4-20.6-20.9
		c-3.7-9.4-4.9-19.7-7.3-29.5c-2.5-9.8-6.7-19.8-14.8-25.9c-2.9-2.2-6.3-3.8-9.9-3.8s-7.4,1.6-9.1,4.7c-1.4,2.5-1.4,5.5-1.9,8.3
		c-1.6,8.5-7.9,15.5-15.6,19.4c-7.7,3.8-16.6,4.8-25.2,4.3c-4.5-0.3-9.5-0.8-13.2,1.9c-4.5,3.3-4.8,9.8-4.7,15.4
		c0.2,9.2,0.6,19.1,6.4,26.3c2.9,3.7,7,6.3,9.8,10c4.4,5.9,5,13.8,3.5,21c-1.4,6.2-7.3,13.1-7.1,19.3
		C278.3,1016.5,285,1017,289.9,1013.9z"/>
	<g>
		<text transform="matrix(1 0 0 1 162.5033 904.4789)" style="fill:#283EBF; font-family:'AdleryPro'; font-size:87.449px;">Visit</text>
	</g>
	<g>
		<text transform="matrix(1 0 0 1 42.2504 960.1851)" style="fill:#283EBF; font-family:'AdleryPro'; font-size:87.449px;">Kosovo</text>
	</g>
</g>
<path class="st0" d="M15.9,415.2c-18-0.3-32.7,14.3-32.7,32.3c0,17.8,14.4,32.3,32.3,32.3c18,0,32.5-14.7,32.3-32.7
	C47.5,429.7,33.3,415.5,15.9,415.2z M11.4,466.3l-14.8-14.8c-2.2-2.2-2.2-5.9,0-8.1l14.8-14.8c2.2-2.2,5.9-2.2,8.1,0l14.8,14.8
	c2.2,2.2,2.2,5.9,0,8.1l-14.8,14.8C17.3,468.5,13.7,468.5,11.4,466.3z"/>
<text transform="matrix(1 0 0 1 68.3507 466.1895)" style="font-family:'Montserrat-Medium'; font-size:63.6968px;">visitKosovo.</text>
<g>
	<polygon class="st0" points="-2505.5,-113.8 -2499.3,-94.9 -2479.4,-94.9 -2495.5,-83.2 -2489.4,-64.2 -2505.5,-75.9 
		-2521.6,-64.2 -2515.4,-83.2 -2531.6,-94.9 -2511.6,-94.9 	"/>
	<polygon class="st0" points="-2453.3,-113.8 -2447.2,-94.9 -2427.3,-94.9 -2443.4,-83.2 -2437.2,-64.2 -2453.3,-75.9 
		-2469.5,-64.2 -2463.3,-83.2 -2479.4,-94.9 -2459.5,-94.9 	"/>
	<polygon class="st0" points="-2401.2,-113.8 -2395.1,-94.9 -2375.1,-94.9 -2391.3,-83.2 -2385.1,-64.2 -2401.2,-75.9 
		-2417.3,-64.2 -2411.2,-83.2 -2427.3,-94.9 -2407.4,-94.9 	"/>
	<polygon class="st0" points="-2489.4,-64.2 -2483.2,-45.3 -2463.3,-45.3 -2479.4,-33.6 -2473.3,-14.6 -2489.4,-26.3 -2505.5,-14.6 
		-2499.3,-33.6 -2515.4,-45.3 -2495.5,-45.3 	"/>
	<polygon class="st0" points="-2437.2,-64.2 -2431.1,-45.3 -2411.2,-45.3 -2427.3,-33.6 -2421.1,-14.6 -2437.2,-26.3 -2453.3,-14.6 
		-2447.2,-33.6 -2463.3,-45.3 -2443.4,-45.3 	"/>
	<polygon class="st0" points="-2385.1,-64.2 -2378.9,-45.3 -2359,-45.3 -2375.1,-33.6 -2369,-14.6 -2385.1,-26.3 -2401.2,-14.6 
		-2395.1,-33.6 -2411.2,-45.3 -2391.3,-45.3 	"/>
	<g>
		
			<text transform="matrix(1 0 0 1 -2643.2014 -68.5086)" style="fill:#283EBF; font-family:'IBMPlexSans-Italic'; font-size:53.3589px;">Visit</text>
	</g>
	<g>
		
			<text transform="matrix(1 0 0 1 -2688.3757 -14.6405)" style="fill:#283EBF; font-family:'IBMPlexSans-Italic'; font-size:53.3589px;">Kosovo</text>
	</g>
</g>
<g>
	<polygon class="st0" points="-2262.6,-197.4 -2256.5,-178.4 -2236.6,-178.4 -2252.7,-166.7 -2246.5,-147.8 -2262.6,-159.5 
		-2278.8,-147.8 -2272.6,-166.7 -2288.7,-178.4 -2268.8,-178.4 	"/>
	<polygon class="st0" points="-2210.5,-197.4 -2204.4,-178.4 -2184.4,-178.4 -2200.5,-166.7 -2194.4,-147.8 -2210.5,-159.5 
		-2226.6,-147.8 -2220.5,-166.7 -2236.6,-178.4 -2216.7,-178.4 	"/>
	<polygon class="st0" points="-2158.4,-197.4 -2152.2,-178.4 -2132.3,-178.4 -2148.4,-166.7 -2142.3,-147.8 -2158.4,-159.5 
		-2174.5,-147.8 -2168.3,-166.7 -2184.4,-178.4 -2164.5,-178.4 	"/>
	<polygon class="st0" points="-2246.5,-147.8 -2240.4,-128.8 -2220.5,-128.8 -2236.6,-117.1 -2230.4,-98.2 -2246.5,-109.9 
		-2262.6,-98.2 -2256.5,-117.1 -2272.6,-128.8 -2252.7,-128.8 	"/>
	<polygon class="st0" points="-2194.4,-147.8 -2188.2,-128.8 -2168.3,-128.8 -2184.4,-117.1 -2178.3,-98.2 -2194.4,-109.9 
		-2210.5,-98.2 -2204.4,-117.1 -2220.5,-128.8 -2200.5,-128.8 	"/>
	<polygon class="st0" points="-2142.3,-147.8 -2136.1,-128.8 -2116.2,-128.8 -2132.3,-117.1 -2126.1,-98.2 -2142.3,-109.9 
		-2158.4,-98.2 -2152.2,-117.1 -2168.3,-128.8 -2148.4,-128.8 	"/>
</g>
<g>
	
		<text transform="matrix(1 0 0 1 -2837.5239 133.556)" style="fill:#283EBF; font-family:'IBMPlexSans-Italic'; font-size:53.3589px;">Visit</text>
</g>
<path class="st0" d="M-2814.9-111.5l-24.9,16.1c-3.9,2.5-9.1,1.4-11.6-2.5l-16.1-24.9c-2.5-3.9-1.4-9.1,2.5-11.6l24.9-16.1
	c3.9-2.5,9.1-1.4,11.6,2.5l16.1,24.9C-2809.9-119.3-2811-114.1-2814.9-111.5z"/>
<g>
	<circle class="st2" cx="-2236.5" cy="1041.7" r="25.9"/>
	
		<rect x="-2262.4" y="1041.7" transform="matrix(0.7071 0.7071 -0.7071 0.7071 99.8733 1894.1102)" class="st2" width="51.9" height="51.9"/>
	<circle class="st2" cx="-2273.1" cy="1067.6" r="7.3"/>
	<circle class="st2" cx="-2200" cy="1067.6" r="7.3"/>
	<circle class="st2" cx="-2236.5" cy="1103.7" r="7.3"/>
</g>
<g>
	<g>
		<g>
			<g>
				<path class="st3" d="M-1107.3,1564.7l-7.3-47.6h6.9l3.5,23.5l1.9,17.3h0.5l8.6-17.3l12.7-23.5h7.6l-26,47.6H-1107.3z"/>
				<path class="st3" d="M-1064.9,1564.7c-2.2,0-3.8-0.5-4.8-1.6c-1.1-1.1-1.6-2.5-1.6-4.2c0-0.6,0.1-1.3,0.3-2.2l7.9-39.6h7.1
					l-8.3,41.3h6.7l-1.2,6.3H-1064.9z M-1057.1,1505.9c-1.4,0-2.4-0.3-3-1c-0.6-0.6-0.9-1.4-0.9-2.3c0-0.2,0-0.4,0-0.8
					c0-0.3,0.1-0.9,0.3-1.8c0.2-1.2,0.8-2.1,1.5-2.7c0.8-0.6,1.9-1,3.5-1c1.4,0,2.4,0.3,3,1c0.6,0.6,0.9,1.4,0.9,2.3
					c0,0.2,0,0.4,0,0.8c0,0.3-0.1,0.9-0.3,1.8c-0.2,1.2-0.8,2.1-1.5,2.7C-1054.4,1505.6-1055.5,1505.9-1057.1,1505.9z"/>
				<path class="st3" d="M-1032.4,1565.8c-3.7,0-7.1-0.8-10.3-2.3c-3.2-1.5-5.8-3.7-7.7-6.4l4.9-4.3c1.7,2.2,3.6,3.9,5.7,5
					c2.2,1.2,4.6,1.7,7.4,1.7c3.1,0,5.7-0.7,7.7-2.2s3-3.7,3-6.6c0-1.6-0.5-2.9-1.4-4.1c-1-1.1-2.8-2-5.6-2.5l-3.6-0.7
					c-1.8-0.4-3.5-0.8-5-1.4c-1.6-0.6-2.9-1.4-4.1-2.3c-1.1-1-2-2.1-2.7-3.5c-0.6-1.4-1-3.1-1-5c0-2,0.4-3.9,1.1-5.7
					c0.7-1.8,1.8-3.4,3.3-4.8c1.5-1.4,3.3-2.5,5.5-3.3c2.2-0.8,4.8-1.2,7.7-1.2c3.5,0,6.5,0.6,9,1.8c2.5,1.2,4.7,2.9,6.5,5.2
					l-4.9,4.4c-1-1.5-2.5-2.7-4.2-3.7c-1.8-1-4.1-1.5-6.9-1.5c-3.5,0-6.1,0.8-7.7,2.3c-1.6,1.5-2.4,3.5-2.4,5.8c0,1.6,0.5,3,1.4,4.1
					c1,1.1,2.8,1.9,5.5,2.4l3.6,0.7c1.9,0.4,3.6,0.9,5.2,1.5c1.6,0.6,2.9,1.4,4,2.4c1.1,1,2,2.2,2.6,3.6c0.6,1.4,0.9,3.1,0.9,5.1
					c0,2.4-0.4,4.6-1.3,6.5c-0.9,1.9-2.1,3.6-3.7,4.9c-1.6,1.3-3.4,2.4-5.6,3.1C-1027.6,1565.4-1029.9,1565.8-1032.4,1565.8z"/>
				<path class="st3" d="M-997.1,1564.7c-2.2,0-3.8-0.5-4.8-1.6c-1.1-1.1-1.6-2.5-1.6-4.2c0-0.6,0.1-1.3,0.3-2.2l7.9-39.6h7.1
					l-8.3,41.3h6.7l-1.2,6.3H-997.1z M-989.3,1505.9c-1.4,0-2.4-0.3-3-1c-0.6-0.6-0.9-1.4-0.9-2.3c0-0.2,0-0.4,0-0.8
					c0-0.3,0.1-0.9,0.3-1.8c0.2-1.2,0.8-2.1,1.5-2.7c0.8-0.6,1.9-1,3.5-1c1.4,0,2.4,0.3,3,1c0.6,0.6,0.9,1.4,0.9,2.3
					c0,0.2,0,0.4,0,0.8c0,0.3-0.1,0.9-0.3,1.8c-0.2,1.2-0.8,2.1-1.5,2.7C-986.6,1505.6-987.7,1505.9-989.3,1505.9z"/>
				<path class="st3" d="M-971.4,1564.7c-2.2,0-3.8-0.5-4.8-1.6c-1.1-1.1-1.6-2.5-1.6-4.2c0-0.6,0.1-1.3,0.3-2.2l6.7-33.3h-7
					l1.2-6.3h3.6c1.7,0,2.9-0.3,3.5-1c0.6-0.7,1-1.8,1.3-3.5l1.8-8.7h6.5l-2.6,13.2h10.1l-1.2,6.3h-10.1l-7.1,35.1h9.3l-1.2,6.3
					H-971.4z"/>
			</g>
		</g>
		<g>
			<path class="st4" d="M-926.5,1534.8l-11.2,10.7l-3.9,19.2h-10l12.9-64.4h10.1l-6.5,32h0.6l10.6-11.3l20.6-20.8h12.4l-27.9,27.9
				l16.8,36.5h-11L-926.5,1534.8z"/>
			<path class="st4" d="M-877.8,1565.8c-5.4,0-9.8-1.7-13.1-5.1s-5-8.3-5-14.8c0-4.1,0.6-8,1.8-11.7c1.2-3.7,2.9-6.9,5.1-9.7
				c2.2-2.8,4.8-4.9,7.8-6.5c3-1.6,6.3-2.4,10-2.4c5.4,0,9.8,1.7,13.1,5.1s5,8.3,5,14.8c0,4.2-0.6,8.1-1.8,11.8
				c-1.2,3.7-2.9,6.9-5.1,9.6c-2.2,2.8-4.8,5-7.8,6.5C-870.8,1565-874.1,1565.8-877.8,1565.8z M-877,1557.8c3,0,5.6-1.1,7.9-3.3
				c2.2-2.2,3.8-5.5,4.7-9.7l1.6-7.7c0.1-0.5,0.2-1.1,0.3-1.7c0.1-0.6,0.1-1.3,0.1-1.9c0-3-0.8-5.3-2.4-7.1c-1.6-1.8-3.9-2.6-7-2.6
				c-3,0-5.6,1.1-7.9,3.3c-2.2,2.2-3.8,5.5-4.7,9.7l-1.6,7.7c-0.1,0.6-0.2,1.1-0.3,1.7c-0.1,0.6-0.1,1.2-0.1,1.9
				c0,3,0.8,5.3,2.4,7.1C-882.4,1556.9-880.1,1557.8-877,1557.8z"/>
			<path class="st4" d="M-829.8,1565.8c-3.8,0-7.4-0.7-10.7-2.2c-3.3-1.5-5.9-3.6-7.9-6.4l6.3-5.7c1.5,2,3.3,3.6,5.3,4.7
				c2,1.1,4.4,1.6,7.1,1.6c3.1,0,5.5-0.7,7.1-2c1.7-1.3,2.5-3.1,2.5-5.4c0-1.3-0.4-2.4-1.2-3.3c-0.8-0.9-2.4-1.6-4.7-2.1l-4.2-0.7
				c-3.9-0.7-7-2-9.3-3.9c-2.3-1.9-3.5-4.8-3.5-8.7c0-2.1,0.4-4.1,1.2-6.1c0.8-1.9,1.9-3.6,3.5-5.1c1.5-1.5,3.5-2.7,5.8-3.6
				c2.3-0.9,5.1-1.3,8.2-1.3c7.1,0,12.7,2.4,16.6,7.3l-6.3,5.7c-1.1-1.5-2.6-2.7-4.3-3.6c-1.8-0.9-4-1.4-6.5-1.4
				c-3,0-5.2,0.6-6.6,1.9c-1.4,1.3-2.2,2.9-2.2,4.9c0,1.3,0.4,2.5,1.2,3.4c0.8,0.9,2.4,1.6,4.7,2l4.2,0.6c4,0.7,7.1,2,9.4,4
				c2.3,2,3.4,4.9,3.4,8.8c0,2.4-0.4,4.6-1.3,6.6c-0.9,2-2.2,3.7-3.8,5.2c-1.7,1.5-3.7,2.6-6,3.5
				C-824.2,1565.4-826.8,1565.8-829.8,1565.8z"/>
			<path class="st4" d="M-782.8,1565.8c-5.4,0-9.8-1.7-13.1-5.1c-3.3-3.4-5-8.3-5-14.8c0-4.1,0.6-8,1.8-11.7
				c1.2-3.7,2.9-6.9,5.1-9.7c2.2-2.8,4.8-4.9,7.8-6.5c3-1.6,6.3-2.4,10-2.4c5.4,0,9.8,1.7,13.1,5.1s5,8.3,5,14.8
				c0,4.2-0.6,8.1-1.8,11.8c-1.2,3.7-2.9,6.9-5.1,9.6c-2.2,2.8-4.8,5-7.8,6.5C-775.8,1565-779.1,1565.8-782.8,1565.8z M-782,1557.8
				c3,0,5.6-1.1,7.9-3.3c2.2-2.2,3.8-5.5,4.7-9.7l1.6-7.7c0.1-0.5,0.2-1.1,0.3-1.7c0.1-0.6,0.1-1.3,0.1-1.9c0-3-0.8-5.3-2.4-7.1
				c-1.6-1.8-3.9-2.6-7-2.6c-3,0-5.6,1.1-7.9,3.3c-2.2,2.2-3.8,5.5-4.7,9.7l-1.6,7.7c-0.1,0.6-0.2,1.1-0.3,1.7
				c-0.1,0.6-0.1,1.2-0.1,1.9c0,3,0.8,5.3,2.4,7.1C-787.4,1556.9-785.1,1557.8-782,1557.8z"/>
			<path class="st4" d="M-743.7,1564.7l-6.7-48h9.4l2.7,21.3l1.8,17.9h0.5l8.4-17.9l11-21.3h10.2l-25.7,48H-743.7z"/>
			<path class="st4" d="M-688.9,1565.8c-5.4,0-9.8-1.7-13.1-5.1c-3.3-3.4-5-8.3-5-14.8c0-4.1,0.6-8,1.8-11.7
				c1.2-3.7,2.9-6.9,5.1-9.7c2.2-2.8,4.8-4.9,7.8-6.5c3-1.6,6.3-2.4,10-2.4c5.4,0,9.8,1.7,13.1,5.1s5,8.3,5,14.8
				c0,4.2-0.6,8.1-1.8,11.8c-1.2,3.7-2.9,6.9-5.1,9.6c-2.2,2.8-4.8,5-7.8,6.5C-681.9,1565-685.2,1565.8-688.9,1565.8z
				 M-688.1,1557.8c3,0,5.6-1.1,7.9-3.3c2.2-2.2,3.8-5.5,4.7-9.7l1.6-7.7c0.1-0.5,0.2-1.1,0.3-1.7c0.1-0.6,0.1-1.3,0.1-1.9
				c0-3-0.8-5.3-2.4-7.1c-1.6-1.8-3.9-2.6-7-2.6c-3,0-5.6,1.1-7.9,3.3c-2.2,2.2-3.8,5.5-4.7,9.7l-1.6,7.7c-0.1,0.6-0.2,1.1-0.3,1.7
				c-0.1,0.6-0.1,1.2-0.1,1.9c0,3,0.8,5.3,2.4,7.1C-693.5,1556.9-691.2,1557.8-688.1,1557.8z"/>
		</g>
	</g>
	<g>
		<g>
			<polygon class="st3" points="-783.4,1468.5 -784.3,1481.3 -772.3,1486.1 -784.8,1489.3 -785.6,1502.1 -792.5,1491.2 
				-804.9,1494.4 -796.7,1484.5 -803.6,1473.7 -791.6,1478.4 			"/>
			<polygon class="st3" points="-748.4,1450.6 -754.2,1462.1 -745.1,1471.1 -757.7,1469.2 -763.5,1480.7 -765.6,1468 -778.3,1466 
				-766.9,1460.2 -769,1447.5 -759.8,1456.5 			"/>
			<polygon class="st3" points="-709.2,1447.8 -719,1456.1 -714.1,1468 -725,1461.3 -734.8,1469.6 -731.8,1457.1 -742.7,1450.4 
				-729.9,1449.4 -726.9,1436.9 -722,1448.8 			"/>
			<polygon class="st3" points="-672,1460.6 -684.2,1464.4 -684.4,1477.2 -691.8,1466.8 -704.1,1470.6 -696.4,1460.3 -703.8,1449.8 
				-691.7,1453.9 -684,1443.6 -684.1,1456.5 			"/>
			<polygon class="st3" points="-642.7,1486.9 -655.5,1485.6 -660.7,1497.3 -663.4,1484.8 -676.2,1483.5 -665.1,1477 -667.8,1464.5 
				-658.2,1473 -647.2,1466.6 -652.3,1478.3 			"/>
			<polygon class="st3" points="-626.1,1522.5 -637.3,1516.3 -646.7,1525.1 -644.3,1512.5 -655.5,1506.3 -642.8,1504.7 
				-640.4,1492.1 -634.9,1503.7 -622.2,1502.1 -631.5,1510.9 			"/>
		</g>
	</g>
</g>
<g>
	<g>
		<g>
			<g>
				<path class="st4" d="M-924.4,1174.4l-7.3-47.6h6.9l3.5,23.5l1.9,17.3h0.5l8.6-17.3l12.7-23.5h7.6l-26,47.6H-924.4z"/>
				<path class="st4" d="M-882.1,1174.4c-2.2,0-3.8-0.5-4.8-1.6c-1.1-1.1-1.6-2.5-1.6-4.2c0-0.6,0.1-1.3,0.3-2.2l7.9-39.6h7.1
					l-8.3,41.3h6.7l-1.2,6.3H-882.1z M-874.2,1115.6c-1.4,0-2.4-0.3-3-1c-0.6-0.6-0.9-1.4-0.9-2.3c0-0.2,0-0.4,0-0.8
					c0-0.3,0.1-0.9,0.3-1.8c0.2-1.2,0.8-2.1,1.5-2.7c0.8-0.6,1.9-1,3.5-1c1.4,0,2.4,0.3,3,1c0.6,0.6,0.9,1.4,0.9,2.3
					c0,0.2,0,0.4,0,0.8c0,0.3-0.1,0.9-0.3,1.8c-0.2,1.2-0.8,2.1-1.5,2.7C-871.5,1115.3-872.7,1115.6-874.2,1115.6z"/>
				<path class="st4" d="M-849.6,1175.5c-3.7,0-7.1-0.8-10.3-2.3c-3.2-1.5-5.8-3.7-7.7-6.4l4.9-4.3c1.7,2.2,3.6,3.9,5.7,5
					c2.2,1.2,4.6,1.7,7.4,1.7c3.1,0,5.7-0.7,7.7-2.2s3-3.7,3-6.6c0-1.6-0.5-2.9-1.4-4.1c-1-1.1-2.8-2-5.6-2.5l-3.6-0.7
					c-1.8-0.4-3.5-0.8-5-1.4c-1.6-0.6-2.9-1.4-4.1-2.3c-1.1-1-2-2.1-2.7-3.5c-0.6-1.4-1-3.1-1-5c0-2,0.4-3.9,1.1-5.7
					c0.7-1.8,1.8-3.4,3.3-4.8c1.5-1.4,3.3-2.5,5.5-3.3c2.2-0.8,4.8-1.2,7.7-1.2c3.5,0,6.5,0.6,9,1.8c2.5,1.2,4.7,2.9,6.5,5.2
					l-4.9,4.4c-1-1.5-2.5-2.7-4.2-3.7c-1.8-1-4.1-1.5-6.9-1.5c-3.5,0-6.1,0.8-7.7,2.3c-1.6,1.5-2.4,3.5-2.4,5.8c0,1.6,0.5,3,1.4,4.1
					c1,1.1,2.8,1.9,5.5,2.4l3.6,0.7c1.9,0.4,3.6,0.9,5.2,1.5c1.6,0.6,2.9,1.4,4,2.4c1.1,1,2,2.2,2.6,3.6c0.6,1.4,0.9,3.1,0.9,5.1
					c0,2.4-0.4,4.6-1.3,6.5c-0.9,1.9-2.1,3.6-3.7,4.9c-1.6,1.3-3.4,2.4-5.6,3.1C-844.8,1175.1-847.1,1175.5-849.6,1175.5z"/>
				<path class="st4" d="M-814.3,1174.4c-2.2,0-3.8-0.5-4.8-1.6c-1.1-1.1-1.6-2.5-1.6-4.2c0-0.6,0.1-1.3,0.3-2.2l7.9-39.6h7.1
					l-8.3,41.3h6.7l-1.2,6.3H-814.3z M-806.4,1115.6c-1.4,0-2.4-0.3-3-1c-0.6-0.6-0.9-1.4-0.9-2.3c0-0.2,0-0.4,0-0.8
					c0-0.3,0.1-0.9,0.3-1.8c0.2-1.2,0.8-2.1,1.5-2.7c0.8-0.6,1.9-1,3.5-1c1.4,0,2.4,0.3,3,1c0.6,0.6,0.9,1.4,0.9,2.3
					c0,0.2,0,0.4,0,0.8c0,0.3-0.1,0.9-0.3,1.8c-0.2,1.2-0.8,2.1-1.5,2.7C-803.8,1115.3-804.9,1115.6-806.4,1115.6z"/>
				<path class="st4" d="M-788.6,1174.4c-2.2,0-3.8-0.5-4.8-1.6c-1.1-1.1-1.6-2.5-1.6-4.2c0-0.6,0.1-1.3,0.3-2.2l6.7-33.3h-7
					l1.2-6.3h3.6c1.7,0,2.9-0.3,3.5-1c0.6-0.7,1-1.8,1.3-3.5l1.8-8.7h6.5l-2.6,13.2h10.1l-1.2,6.3h-10.1l-7.1,35.1h9.3l-1.2,6.3
					H-788.6z"/>
			</g>
		</g>
		<g>
			<path class="st3" d="M-743.6,1144.5l-11.2,10.7l-3.9,19.2h-10l12.9-64.4h10.1l-6.5,32h0.6l10.6-11.3l20.6-20.8h12.4l-27.9,27.9
				l16.8,36.5h-11L-743.6,1144.5z"/>
			<path class="st3" d="M-694.9,1175.5c-5.4,0-9.8-1.7-13.1-5.1s-5-8.3-5-14.8c0-4.1,0.6-8,1.8-11.7c1.2-3.7,2.9-6.9,5.1-9.7
				c2.2-2.8,4.8-4.9,7.8-6.5c3-1.6,6.3-2.4,10-2.4c5.4,0,9.8,1.7,13.1,5.1s5,8.3,5,14.8c0,4.2-0.6,8.1-1.8,11.8
				c-1.2,3.7-2.9,6.9-5.1,9.6c-2.2,2.8-4.8,5-7.8,6.5C-688,1174.7-691.3,1175.5-694.9,1175.5z M-694.2,1167.4c3,0,5.6-1.1,7.9-3.3
				c2.2-2.2,3.8-5.5,4.7-9.7l1.6-7.7c0.1-0.5,0.2-1.1,0.3-1.7c0.1-0.6,0.1-1.3,0.1-1.9c0-3-0.8-5.3-2.4-7.1c-1.6-1.8-3.9-2.6-7-2.6
				c-3,0-5.6,1.1-7.9,3.3c-2.2,2.2-3.8,5.5-4.7,9.7l-1.6,7.7c-0.1,0.6-0.2,1.1-0.3,1.7c-0.1,0.6-0.1,1.2-0.1,1.9
				c0,3,0.8,5.3,2.4,7.1C-699.6,1166.6-697.3,1167.4-694.2,1167.4z"/>
			<path class="st3" d="M-647,1175.5c-3.8,0-7.4-0.7-10.7-2.2c-3.3-1.5-5.9-3.6-7.9-6.4l6.3-5.7c1.5,2,3.3,3.6,5.3,4.7
				c2,1.1,4.4,1.6,7.1,1.6c3.1,0,5.5-0.7,7.1-2c1.7-1.3,2.5-3.1,2.5-5.4c0-1.3-0.4-2.4-1.2-3.3c-0.8-0.9-2.4-1.6-4.7-2.1l-4.2-0.7
				c-3.9-0.7-7-2-9.3-3.9c-2.3-1.9-3.5-4.8-3.5-8.7c0-2.1,0.4-4.1,1.2-6.1c0.8-1.9,1.9-3.6,3.5-5.1c1.5-1.5,3.5-2.7,5.8-3.6
				c2.3-0.9,5.1-1.3,8.2-1.3c7.1,0,12.7,2.4,16.6,7.3l-6.3,5.7c-1.1-1.5-2.6-2.7-4.3-3.6c-1.8-0.9-4-1.4-6.5-1.4
				c-3,0-5.2,0.6-6.6,1.9c-1.4,1.3-2.2,2.9-2.2,4.9c0,1.3,0.4,2.5,1.2,3.4c0.8,0.9,2.4,1.6,4.7,2l4.2,0.6c4,0.7,7.1,2,9.4,4
				c2.3,2,3.4,4.9,3.4,8.8c0,2.4-0.4,4.6-1.3,6.6c-0.9,2-2.2,3.7-3.8,5.2c-1.7,1.5-3.7,2.6-6,3.5C-641.4,1175-644,1175.5-647,1175.5
				z"/>
			<path class="st3" d="M-599.9,1175.5c-5.4,0-9.8-1.7-13.1-5.1c-3.3-3.4-5-8.3-5-14.8c0-4.1,0.6-8,1.8-11.7
				c1.2-3.7,2.9-6.9,5.1-9.7c2.2-2.8,4.8-4.9,7.8-6.5c3-1.6,6.3-2.4,10-2.4c5.4,0,9.8,1.7,13.1,5.1s5,8.3,5,14.8
				c0,4.2-0.6,8.1-1.8,11.8c-1.2,3.7-2.9,6.9-5.1,9.6c-2.2,2.8-4.8,5-7.8,6.5C-593,1174.7-596.3,1175.5-599.9,1175.5z
				 M-599.2,1167.4c3,0,5.6-1.1,7.9-3.3c2.2-2.2,3.8-5.5,4.7-9.7l1.6-7.7c0.1-0.5,0.2-1.1,0.3-1.7c0.1-0.6,0.1-1.3,0.1-1.9
				c0-3-0.8-5.3-2.4-7.1c-1.6-1.8-3.9-2.6-7-2.6c-3,0-5.6,1.1-7.9,3.3c-2.2,2.2-3.8,5.5-4.7,9.7l-1.6,7.7c-0.1,0.6-0.2,1.1-0.3,1.7
				c-0.1,0.6-0.1,1.2-0.1,1.9c0,3,0.8,5.3,2.4,7.1C-604.6,1166.6-602.3,1167.4-599.2,1167.4z"/>
			<path class="st3" d="M-560.9,1174.4l-6.7-48h9.4l2.7,21.3l1.8,17.9h0.5l8.4-17.9l11-21.3h10.2l-25.7,48H-560.9z"/>
			<path class="st3" d="M-506,1175.5c-5.4,0-9.8-1.7-13.1-5.1c-3.3-3.4-5-8.3-5-14.8c0-4.1,0.6-8,1.8-11.7c1.2-3.7,2.9-6.9,5.1-9.7
				c2.2-2.8,4.8-4.9,7.8-6.5c3-1.6,6.3-2.4,10-2.4c5.4,0,9.8,1.7,13.1,5.1s5,8.3,5,14.8c0,4.2-0.6,8.1-1.8,11.8
				c-1.2,3.7-2.9,6.9-5.1,9.6c-2.2,2.8-4.8,5-7.8,6.5C-499.1,1174.7-502.4,1175.5-506,1175.5z M-505.3,1167.4c3,0,5.6-1.1,7.9-3.3
				c2.2-2.2,3.8-5.5,4.7-9.7l1.6-7.7c0.1-0.5,0.2-1.1,0.3-1.7c0.1-0.6,0.1-1.3,0.1-1.9c0-3-0.8-5.3-2.4-7.1c-1.6-1.8-3.9-2.6-7-2.6
				c-3,0-5.6,1.1-7.9,3.3c-2.2,2.2-3.8,5.5-4.7,9.7l-1.6,7.7c-0.1,0.6-0.2,1.1-0.3,1.7c-0.1,0.6-0.1,1.2-0.1,1.9
				c0,3,0.8,5.3,2.4,7.1C-510.7,1166.6-508.4,1167.4-505.3,1167.4z"/>
		</g>
	</g>
	<g>
		<polygon class="st4" points="-600.6,1078.2 -601.4,1091 -589.5,1095.8 -601.9,1098.9 -602.8,1111.7 -609.6,1100.9 -622.1,1104.1 
			-613.9,1094.2 -620.7,1083.3 -608.8,1088.1 		"/>
		<polygon class="st4" points="-565.6,1060.3 -571.3,1071.8 -562.2,1080.8 -574.9,1078.9 -580.7,1090.3 -582.8,1077.7 
			-595.4,1075.7 -584,1069.8 -586.1,1057.2 -577,1066.2 		"/>
		<polygon class="st4" points="-526.4,1057.5 -536.1,1065.8 -531.3,1077.7 -542.2,1070.9 -552,1079.3 -548.9,1066.8 -559.9,1060 
			-547.1,1059.1 -544,1046.6 -539.2,1058.5 		"/>
		<polygon class="st4" points="-489.2,1070.3 -501.4,1074.1 -501.6,1086.9 -509,1076.4 -521.2,1080.3 -513.6,1070 -521,1059.5 
			-508.8,1063.6 -501.2,1053.3 -501.3,1066.1 		"/>
		<polygon class="st4" points="-459.9,1096.5 -472.7,1095.3 -477.8,1107 -480.6,1094.5 -493.3,1093.2 -482.3,1086.7 -485,1074.2 
			-475.4,1082.7 -464.3,1076.2 -469.5,1088 		"/>
		<polygon class="st4" points="-443.2,1132.2 -454.5,1126 -463.8,1134.8 -461.4,1122.2 -472.7,1116 -460,1114.4 -457.6,1101.8 
			-452.1,1113.4 -439.4,1111.7 -448.7,1120.5 		"/>
	</g>
</g>
<g>
	<g>
		<path class="st5" d="M-2344.8,216.9l-7.3-47.6h6.9l3.5,23.5l1.9,17.3h0.5l8.6-17.3l12.7-23.5h7.6l-26,47.6H-2344.8z"/>
		<path class="st5" d="M-2302.5,216.9c-2.2,0-3.8-0.5-4.8-1.6c-1.1-1.1-1.6-2.5-1.6-4.2c0-0.6,0.1-1.3,0.3-2.2l7.9-39.6h7.1
			l-8.3,41.3h6.7l-1.2,6.3H-2302.5z M-2294.6,158.1c-1.4,0-2.4-0.3-3-1c-0.6-0.6-0.9-1.4-0.9-2.3c0-0.2,0-0.4,0-0.8
			c0-0.3,0.1-0.9,0.3-1.8c0.2-1.2,0.8-2.1,1.5-2.7c0.8-0.6,1.9-1,3.5-1c1.4,0,2.4,0.3,3,1c0.6,0.6,0.9,1.4,0.9,2.3
			c0,0.2,0,0.4,0,0.8c0,0.3-0.1,0.9-0.3,1.8c-0.2,1.2-0.8,2.1-1.5,2.7C-2292,157.8-2293.1,158.1-2294.6,158.1z"/>
		<path class="st5" d="M-2270,218c-3.7,0-7.1-0.8-10.3-2.3c-3.2-1.5-5.8-3.7-7.7-6.4l4.9-4.3c1.7,2.2,3.6,3.9,5.7,5
			c2.2,1.2,4.6,1.7,7.4,1.7c3.1,0,5.7-0.7,7.7-2.2s3-3.7,3-6.6c0-1.6-0.5-2.9-1.4-4.1c-1-1.1-2.8-2-5.6-2.5l-3.6-0.7
			c-1.8-0.4-3.5-0.8-5-1.4c-1.6-0.6-2.9-1.4-4.1-2.3c-1.1-1-2-2.1-2.7-3.5c-0.6-1.4-1-3.1-1-5c0-2,0.4-3.9,1.1-5.7
			c0.7-1.8,1.8-3.4,3.3-4.8c1.5-1.4,3.3-2.5,5.5-3.3c2.2-0.8,4.8-1.2,7.7-1.2c3.5,0,6.5,0.6,9,1.8c2.5,1.2,4.7,2.9,6.5,5.2l-4.9,4.4
			c-1-1.5-2.5-2.7-4.2-3.7c-1.8-1-4.1-1.5-6.9-1.5c-3.5,0-6.1,0.8-7.7,2.3c-1.6,1.5-2.4,3.5-2.4,5.8c0,1.6,0.5,3,1.4,4.1
			c1,1.1,2.8,1.9,5.5,2.4l3.6,0.7c1.9,0.4,3.6,0.9,5.2,1.5c1.6,0.6,2.9,1.4,4,2.4c1.1,1,2,2.2,2.6,3.6c0.6,1.4,0.9,3.1,0.9,5.1
			c0,2.4-0.4,4.6-1.3,6.5c-0.9,1.9-2.1,3.6-3.7,4.9c-1.6,1.3-3.4,2.4-5.6,3.1C-2265.2,217.6-2267.5,218-2270,218z"/>
		<path class="st5" d="M-2234.7,216.9c-2.2,0-3.8-0.5-4.8-1.6c-1.1-1.1-1.6-2.5-1.6-4.2c0-0.6,0.1-1.3,0.3-2.2l7.9-39.6h7.1
			l-8.3,41.3h6.7l-1.2,6.3H-2234.7z M-2226.9,158.1c-1.4,0-2.4-0.3-3-1c-0.6-0.6-0.9-1.4-0.9-2.3c0-0.2,0-0.4,0-0.8
			c0-0.3,0.1-0.9,0.3-1.8c0.2-1.2,0.8-2.1,1.5-2.7c0.8-0.6,1.9-1,3.5-1c1.4,0,2.4,0.3,3,1c0.6,0.6,0.9,1.4,0.9,2.3
			c0,0.2,0,0.4,0,0.8c0,0.3-0.1,0.9-0.3,1.8c-0.2,1.2-0.8,2.1-1.5,2.7C-2224.2,157.8-2225.3,158.1-2226.9,158.1z"/>
		<path class="st5" d="M-2209,216.9c-2.2,0-3.8-0.5-4.8-1.6c-1.1-1.1-1.6-2.5-1.6-4.2c0-0.6,0.1-1.3,0.3-2.2l6.7-33.3h-7l1.2-6.3
			h3.6c1.7,0,2.9-0.3,3.5-1c0.6-0.7,1-1.8,1.3-3.5l1.8-8.7h6.5l-2.6,13.2h10.1l-1.2,6.3h-10.1l-7.1,35.1h9.3l-1.2,6.3H-2209z"/>
	</g>
	<g>
		<path class="st6" d="M-2164,187l-11.2,10.7l-3.9,19.2h-10l12.9-64.4h10.1l-6.5,32h0.6l10.6-11.3l20.6-20.8h12.4l-27.9,27.9
			l16.8,36.5h-11L-2164,187z"/>
		<path class="st6" d="M-2115.3,218c-5.4,0-9.8-1.7-13.1-5.1s-5-8.3-5-14.8c0-4.1,0.6-8,1.8-11.7c1.2-3.7,2.9-6.9,5.1-9.7
			c2.2-2.8,4.8-4.9,7.8-6.5c3-1.6,6.3-2.4,10-2.4c5.4,0,9.8,1.7,13.1,5.1s5,8.3,5,14.8c0,4.2-0.6,8.1-1.8,11.8
			c-1.2,3.7-2.9,6.9-5.1,9.6c-2.2,2.8-4.8,5-7.8,6.5C-2108.4,217.2-2111.7,218-2115.3,218z M-2114.6,210c3,0,5.6-1.1,7.9-3.3
			c2.2-2.2,3.8-5.5,4.7-9.7l1.6-7.7c0.1-0.5,0.2-1.1,0.3-1.7c0.1-0.6,0.1-1.3,0.1-1.9c0-3-0.8-5.3-2.4-7.1c-1.6-1.8-3.9-2.6-7-2.6
			c-3,0-5.6,1.1-7.9,3.3c-2.2,2.2-3.8,5.5-4.7,9.7l-1.6,7.7c-0.1,0.6-0.2,1.1-0.3,1.7c-0.1,0.6-0.1,1.2-0.1,1.9c0,3,0.8,5.3,2.4,7.1
			C-2120,209.1-2117.7,210-2114.6,210z"/>
		<path class="st6" d="M-2067.4,218c-3.8,0-7.4-0.7-10.7-2.2c-3.3-1.5-5.9-3.6-7.9-6.4l6.3-5.7c1.5,2,3.3,3.6,5.3,4.7
			c2,1.1,4.4,1.6,7.1,1.6c3.1,0,5.5-0.7,7.1-2c1.7-1.3,2.5-3.1,2.5-5.4c0-1.3-0.4-2.4-1.2-3.3c-0.8-0.9-2.4-1.6-4.7-2.1l-4.2-0.7
			c-3.9-0.7-7-2-9.3-3.9c-2.3-1.9-3.5-4.8-3.5-8.7c0-2.1,0.4-4.1,1.2-6.1c0.8-1.9,1.9-3.6,3.5-5.1c1.5-1.5,3.5-2.7,5.8-3.6
			c2.3-0.9,5.1-1.3,8.2-1.3c7.1,0,12.7,2.4,16.6,7.3l-6.3,5.7c-1.1-1.5-2.6-2.7-4.3-3.6c-1.8-0.9-4-1.4-6.5-1.4
			c-3,0-5.2,0.6-6.6,1.9c-1.4,1.3-2.2,2.9-2.2,4.9c0,1.3,0.4,2.5,1.2,3.4c0.8,0.9,2.4,1.6,4.7,2l4.2,0.6c4,0.7,7.1,2,9.4,4
			c2.3,2,3.4,4.9,3.4,8.8c0,2.4-0.4,4.6-1.3,6.6c-0.9,2-2.2,3.7-3.8,5.2c-1.7,1.5-3.7,2.6-6,3.5
			C-2061.8,217.6-2064.4,218-2067.4,218z"/>
		<path class="st6" d="M-2020.3,218c-5.4,0-9.8-1.7-13.1-5.1c-3.3-3.4-5-8.3-5-14.8c0-4.1,0.6-8,1.8-11.7c1.2-3.7,2.9-6.9,5.1-9.7
			c2.2-2.8,4.8-4.9,7.8-6.5c3-1.6,6.3-2.4,10-2.4c5.4,0,9.8,1.7,13.1,5.1s5,8.3,5,14.8c0,4.2-0.6,8.1-1.8,11.8
			c-1.2,3.7-2.9,6.9-5.1,9.6c-2.2,2.8-4.8,5-7.8,6.5C-2013.4,217.2-2016.7,218-2020.3,218z M-2019.6,210c3,0,5.6-1.1,7.9-3.3
			c2.2-2.2,3.8-5.5,4.7-9.7l1.6-7.7c0.1-0.5,0.2-1.1,0.3-1.7c0.1-0.6,0.1-1.3,0.1-1.9c0-3-0.8-5.3-2.4-7.1c-1.6-1.8-3.9-2.6-7-2.6
			c-3,0-5.6,1.1-7.9,3.3c-2.2,2.2-3.8,5.5-4.7,9.7l-1.6,7.7c-0.1,0.6-0.2,1.1-0.3,1.7c-0.1,0.6-0.1,1.2-0.1,1.9c0,3,0.8,5.3,2.4,7.1
			C-2025,209.1-2022.7,210-2019.6,210z"/>
		<path class="st6" d="M-1981.3,216.9l-6.7-48h9.4l2.7,21.3l1.8,17.9h0.5l8.4-17.9l11-21.3h10.2l-25.7,48H-1981.3z"/>
		<path class="st6" d="M-1926.4,218c-5.4,0-9.8-1.7-13.1-5.1c-3.3-3.4-5-8.3-5-14.8c0-4.1,0.6-8,1.8-11.7c1.2-3.7,2.9-6.9,5.1-9.7
			c2.2-2.8,4.8-4.9,7.8-6.5c3-1.6,6.3-2.4,10-2.4c5.4,0,9.8,1.7,13.1,5.1s5,8.3,5,14.8c0,4.2-0.6,8.1-1.8,11.8
			c-1.2,3.7-2.9,6.9-5.1,9.6c-2.2,2.8-4.8,5-7.8,6.5C-1919.5,217.2-1922.8,218-1926.4,218z M-1925.7,210c3,0,5.6-1.1,7.9-3.3
			c2.2-2.2,3.8-5.5,4.7-9.7l1.6-7.7c0.1-0.5,0.2-1.1,0.3-1.7c0.1-0.6,0.1-1.3,0.1-1.9c0-3-0.8-5.3-2.4-7.1c-1.6-1.8-3.9-2.6-7-2.6
			c-3,0-5.6,1.1-7.9,3.3c-2.2,2.2-3.8,5.5-4.7,9.7l-1.6,7.7c-0.1,0.6-0.2,1.1-0.3,1.7c-0.1,0.6-0.1,1.2-0.1,1.9c0,3,0.8,5.3,2.4,7.1
			C-1931.1,209.1-1928.8,210-1925.7,210z"/>
	</g>
	<g>
		<polygon class="st5" points="-2021,120.7 -2021.8,133.5 -2009.9,138.3 -2022.3,141.5 -2023.2,154.3 -2030,143.4 -2042.5,146.6 
			-2034.3,136.7 -2041.1,125.9 -2029.2,130.6 		"/>
		<polygon class="st5" points="-1986,102.8 -1991.8,114.3 -1982.6,123.3 -1995.3,121.4 -2001.1,132.9 -2003.2,120.2 -2015.9,118.2 
			-2004.4,112.4 -2006.5,99.7 -1997.4,108.7 		"/>
		<polygon class="st5" points="-1946.8,100 -1956.6,108.3 -1951.7,120.2 -1962.6,113.5 -1972.4,121.8 -1969.4,109.3 -1980.3,102.6 
			-1967.5,101.6 -1964.4,89.1 -1959.6,101 		"/>
		<polygon class="st5" points="-1909.6,112.8 -1921.8,116.6 -1922,129.4 -1929.4,119 -1941.7,122.8 -1934,112.5 -1941.4,102 
			-1929.2,106.1 -1921.6,95.8 -1921.7,108.7 		"/>
		<polygon class="st5" points="-1880.3,139.1 -1893.1,137.8 -1898.2,149.5 -1901,137 -1913.7,135.7 -1902.7,129.2 -1905.4,116.7 
			-1895.8,125.2 -1884.7,118.8 -1889.9,130.5 		"/>
		<polygon class="st5" points="-1863.6,174.7 -1874.9,168.5 -1884.2,177.3 -1881.9,164.7 -1893.1,158.5 -1880.4,156.9 -1878,144.3 
			-1872.5,155.9 -1859.8,154.3 -1869.1,163.1 		"/>
	</g>
</g>
<g>
	<g>
		<path class="st7" d="M79.3-104.5L77-119.4h2.2l1.1,7.4l0.6,5.4H81l2.7-5.4l4-7.4h2.4l-8.1,14.9H79.3z"/>
		<path class="st7" d="M92.6-104.5c-0.7,0-1.2-0.2-1.5-0.5c-0.3-0.3-0.5-0.8-0.5-1.3c0-0.2,0-0.4,0.1-0.7l2.5-12.4h2.2l-2.6,12.9
			h2.1l-0.4,2H92.6z M95-122.9c-0.4,0-0.8-0.1-0.9-0.3c-0.2-0.2-0.3-0.4-0.3-0.7c0-0.1,0-0.1,0-0.2c0-0.1,0-0.3,0.1-0.6
			c0.1-0.4,0.2-0.6,0.5-0.9c0.2-0.2,0.6-0.3,1.1-0.3c0.4,0,0.8,0.1,0.9,0.3c0.2,0.2,0.3,0.4,0.3,0.7c0,0.1,0,0.1,0,0.2
			c0,0.1,0,0.3-0.1,0.6c-0.1,0.4-0.2,0.6-0.5,0.9C95.9-123,95.5-122.9,95-122.9z"/>
		<path class="st7" d="M102.7-104.2c-1.2,0-2.2-0.2-3.2-0.7c-1-0.5-1.8-1.1-2.4-2l1.5-1.4c0.5,0.7,1.1,1.2,1.8,1.6
			c0.7,0.4,1.4,0.5,2.3,0.5c1,0,1.8-0.2,2.4-0.7c0.6-0.5,1-1.2,1-2.1c0-0.5-0.1-0.9-0.4-1.3c-0.3-0.4-0.9-0.6-1.7-0.8l-1.1-0.2
			c-0.6-0.1-1.1-0.3-1.6-0.4c-0.5-0.2-0.9-0.4-1.3-0.7c-0.4-0.3-0.6-0.7-0.8-1.1c-0.2-0.4-0.3-1-0.3-1.6c0-0.6,0.1-1.2,0.3-1.8
			c0.2-0.6,0.6-1.1,1-1.5c0.5-0.4,1-0.8,1.7-1c0.7-0.3,1.5-0.4,2.4-0.4c1.1,0,2,0.2,2.8,0.6c0.8,0.4,1.5,0.9,2,1.6l-1.5,1.4
			c-0.3-0.5-0.8-0.8-1.3-1.1c-0.6-0.3-1.3-0.5-2.2-0.5c-1.1,0-1.9,0.2-2.4,0.7c-0.5,0.5-0.8,1.1-0.8,1.8c0,0.5,0.1,0.9,0.4,1.3
			c0.3,0.3,0.9,0.6,1.7,0.8l1.1,0.2c0.6,0.1,1.1,0.3,1.6,0.5c0.5,0.2,0.9,0.4,1.3,0.8c0.3,0.3,0.6,0.7,0.8,1.1
			c0.2,0.4,0.3,1,0.3,1.6c0,0.8-0.1,1.4-0.4,2c-0.3,0.6-0.7,1.1-1.2,1.5c-0.5,0.4-1.1,0.7-1.7,1
			C104.2-104.3,103.5-104.2,102.7-104.2z"/>
		<path class="st7" d="M113.8-104.5c-0.7,0-1.2-0.2-1.5-0.5c-0.3-0.3-0.5-0.8-0.5-1.3c0-0.2,0-0.4,0.1-0.7l2.5-12.4h2.2l-2.6,12.9
			h2.1l-0.4,2H113.8z M116.2-122.9c-0.4,0-0.8-0.1-0.9-0.3c-0.2-0.2-0.3-0.4-0.3-0.7c0-0.1,0-0.1,0-0.2c0-0.1,0-0.3,0.1-0.6
			c0.1-0.4,0.2-0.6,0.5-0.9c0.2-0.2,0.6-0.3,1.1-0.3c0.4,0,0.8,0.1,0.9,0.3c0.2,0.2,0.3,0.4,0.3,0.7c0,0.1,0,0.1,0,0.2
			c0,0.1,0,0.3-0.1,0.6c-0.1,0.4-0.2,0.6-0.5,0.9C117.1-123,116.7-122.9,116.2-122.9z"/>
		<path class="st7" d="M121.8-104.5c-0.7,0-1.2-0.2-1.5-0.5c-0.3-0.3-0.5-0.8-0.5-1.3c0-0.2,0-0.4,0.1-0.7l2.1-10.4h-2.2l0.4-2h1.1
			c0.5,0,0.9-0.1,1.1-0.3c0.2-0.2,0.3-0.6,0.4-1.1l0.5-2.7h2l-0.8,4.1h3.1l-0.4,2h-3.1l-2.2,11h2.9l-0.4,2H121.8z"/>
	</g>
	<g>
		<path class="st8" d="M135.9-113.9l-3.5,3.3l-1.2,6h-3.1l4-20.1h3.1l-2,10h0.2l3.3-3.5l6.4-6.5h3.9l-8.7,8.7l5.3,11.4h-3.4
			L135.9-113.9z"/>
		<path class="st8" d="M151.1-104.2c-1.7,0-3.1-0.5-4.1-1.6s-1.6-2.6-1.6-4.6c0-1.3,0.2-2.5,0.6-3.7c0.4-1.2,0.9-2.2,1.6-3
			c0.7-0.9,1.5-1.5,2.4-2c0.9-0.5,2-0.8,3.1-0.8c1.7,0,3.1,0.5,4.1,1.6c1,1.1,1.6,2.6,1.6,4.6c0,1.3-0.2,2.5-0.6,3.7
			c-0.4,1.1-0.9,2.2-1.6,3c-0.7,0.9-1.5,1.5-2.4,2C153.3-104.4,152.3-104.2,151.1-104.2z M151.4-106.7c0.9,0,1.8-0.3,2.5-1
			c0.7-0.7,1.2-1.7,1.5-3l0.5-2.4c0-0.2,0.1-0.3,0.1-0.5c0-0.2,0-0.4,0-0.6c0-0.9-0.2-1.7-0.7-2.2c-0.5-0.6-1.2-0.8-2.2-0.8
			c-0.9,0-1.8,0.3-2.5,1c-0.7,0.7-1.2,1.7-1.5,3l-0.5,2.4c0,0.2-0.1,0.4-0.1,0.5c0,0.2,0,0.4,0,0.6c0,0.9,0.2,1.7,0.7,2.2
			C149.7-106.9,150.4-106.7,151.4-106.7z"/>
		<path class="st8" d="M166.1-104.2c-1.2,0-2.3-0.2-3.3-0.7c-1-0.5-1.9-1.1-2.5-2l2-1.8c0.5,0.6,1,1.1,1.7,1.5
			c0.6,0.3,1.4,0.5,2.2,0.5c1,0,1.7-0.2,2.2-0.6c0.5-0.4,0.8-1,0.8-1.7c0-0.4-0.1-0.7-0.4-1c-0.3-0.3-0.7-0.5-1.5-0.6l-1.3-0.2
			c-1.2-0.2-2.2-0.6-2.9-1.2c-0.7-0.6-1.1-1.5-1.1-2.7c0-0.7,0.1-1.3,0.4-1.9c0.2-0.6,0.6-1.1,1.1-1.6c0.5-0.5,1.1-0.8,1.8-1.1
			c0.7-0.3,1.6-0.4,2.6-0.4c2.2,0,4,0.8,5.2,2.3l-2,1.8c-0.3-0.5-0.8-0.8-1.4-1.1c-0.6-0.3-1.2-0.4-2-0.4c-0.9,0-1.6,0.2-2.1,0.6
			c-0.5,0.4-0.7,0.9-0.7,1.5c0,0.4,0.1,0.8,0.4,1.1c0.3,0.3,0.7,0.5,1.5,0.6l1.3,0.2c1.3,0.2,2.2,0.6,2.9,1.2
			c0.7,0.6,1.1,1.5,1.1,2.7c0,0.8-0.1,1.4-0.4,2.1c-0.3,0.6-0.7,1.2-1.2,1.6c-0.5,0.5-1.1,0.8-1.9,1.1
			C167.9-104.3,167.1-104.2,166.1-104.2z"/>
		<path class="st8" d="M180.9-104.2c-1.7,0-3.1-0.5-4.1-1.6c-1-1.1-1.6-2.6-1.6-4.6c0-1.3,0.2-2.5,0.6-3.7c0.4-1.2,0.9-2.2,1.6-3
			c0.7-0.9,1.5-1.5,2.4-2c0.9-0.5,2-0.8,3.1-0.8c1.7,0,3.1,0.5,4.1,1.6c1,1.1,1.6,2.6,1.6,4.6c0,1.3-0.2,2.5-0.6,3.7
			c-0.4,1.1-0.9,2.2-1.6,3c-0.7,0.9-1.5,1.5-2.4,2C183-104.4,182-104.2,180.9-104.2z M181.1-106.7c0.9,0,1.8-0.3,2.5-1
			c0.7-0.7,1.2-1.7,1.5-3l0.5-2.4c0-0.2,0.1-0.3,0.1-0.5c0-0.2,0-0.4,0-0.6c0-0.9-0.2-1.7-0.7-2.2c-0.5-0.6-1.2-0.8-2.2-0.8
			c-0.9,0-1.8,0.3-2.5,1c-0.7,0.7-1.2,1.7-1.5,3l-0.5,2.4c0,0.2-0.1,0.4-0.1,0.5c0,0.2,0,0.4,0,0.6c0,0.9,0.2,1.7,0.7,2.2
			C179.4-106.9,180.1-106.7,181.1-106.7z"/>
		<path class="st8" d="M193.1-104.5l-2.1-15h2.9l0.8,6.7l0.5,5.6h0.1l2.6-5.6l3.4-6.7h3.2l-8.1,15H193.1z"/>
		<path class="st8" d="M210.2-104.2c-1.7,0-3.1-0.5-4.1-1.6c-1-1.1-1.6-2.6-1.6-4.6c0-1.3,0.2-2.5,0.6-3.7c0.4-1.2,0.9-2.2,1.6-3
			c0.7-0.9,1.5-1.5,2.4-2c0.9-0.5,2-0.8,3.1-0.8c1.7,0,3.1,0.5,4.1,1.6c1,1.1,1.6,2.6,1.6,4.6c0,1.3-0.2,2.5-0.6,3.7
			c-0.4,1.1-0.9,2.2-1.6,3c-0.7,0.9-1.5,1.5-2.4,2C212.4-104.4,211.4-104.2,210.2-104.2z M210.5-106.7c0.9,0,1.8-0.3,2.5-1
			c0.7-0.7,1.2-1.7,1.5-3l0.5-2.4c0-0.2,0.1-0.3,0.1-0.5c0-0.2,0-0.4,0-0.6c0-0.9-0.2-1.7-0.7-2.2c-0.5-0.6-1.2-0.8-2.2-0.8
			c-0.9,0-1.8,0.3-2.5,1c-0.7,0.7-1.2,1.7-1.5,3l-0.5,2.4c0,0.2-0.1,0.4-0.1,0.5c0,0.2,0,0.4,0,0.6c0,0.9,0.2,1.7,0.7,2.2
			C208.8-106.9,209.5-106.7,210.5-106.7z"/>
	</g>
	<g>
		<polygon class="st7" points="180.6,-134.6 180.4,-130.6 184.1,-129.1 180.2,-128.1 180,-124.1 177.8,-127.5 173.9,-126.5 
			176.5,-129.6 174.3,-133 178.1,-131.5 		"/>
		<polygon class="st7" points="191.6,-140.2 189.8,-136.6 192.7,-133.8 188.7,-134.4 186.9,-130.8 186.2,-134.8 182.3,-135.4 
			185.8,-137.2 185.2,-141.2 188,-138.4 		"/>
		<polygon class="st7" points="203.9,-141.1 200.8,-138.5 202.3,-134.8 198.9,-136.9 195.9,-134.3 196.8,-138.2 193.4,-140.3 
			197.4,-140.6 198.4,-144.5 199.9,-140.8 		"/>
		<polygon class="st7" points="215.5,-137.1 211.7,-135.9 211.6,-131.9 209.3,-135.1 205.5,-134 207.9,-137.2 205.6,-140.5 
			209.4,-139.2 211.8,-142.4 211.7,-138.4 		"/>
		<polygon class="st7" points="224.7,-128.9 220.7,-129.3 219.1,-125.6 218.2,-129.5 214.2,-129.9 217.7,-131.9 216.8,-135.9 
			219.8,-133.2 223.3,-135.2 221.7,-131.5 		"/>
		<polygon class="st7" points="229.9,-117.7 226.4,-119.6 223.5,-116.9 224.2,-120.8 220.7,-122.8 224.7,-123.3 225.4,-127.2 
			227.1,-123.6 231.1,-124.1 228.2,-121.3 		"/>
	</g>
</g>
<g>
	<g>
		<path class="st7" d="M-181.6,40l-2.3-14.9h2.2l1.1,7.4l0.6,5.4h0.1l2.7-5.4l4-7.4h2.4L-179,40H-181.6z"/>
		<path class="st7" d="M-168.3,40c-0.7,0-1.2-0.2-1.5-0.5c-0.3-0.3-0.5-0.8-0.5-1.3c0-0.2,0-0.4,0.1-0.7l2.5-12.4h2.2l-2.6,12.9h2.1
			l-0.4,2H-168.3z M-165.9,21.6c-0.4,0-0.8-0.1-0.9-0.3c-0.2-0.2-0.3-0.4-0.3-0.7c0-0.1,0-0.1,0-0.2c0-0.1,0-0.3,0.1-0.6
			c0.1-0.4,0.2-0.6,0.5-0.9c0.2-0.2,0.6-0.3,1.1-0.3c0.4,0,0.8,0.1,0.9,0.3c0.2,0.2,0.3,0.4,0.3,0.7c0,0.1,0,0.1,0,0.2
			c0,0.1,0,0.3-0.1,0.6c-0.1,0.4-0.2,0.6-0.5,0.9C-165,21.5-165.4,21.6-165.9,21.6z"/>
		<path class="st7" d="M-158.2,40.3c-1.2,0-2.2-0.2-3.2-0.7c-1-0.5-1.8-1.1-2.4-2l1.5-1.4c0.5,0.7,1.1,1.2,1.8,1.6
			c0.7,0.4,1.4,0.5,2.3,0.5c1,0,1.8-0.2,2.4-0.7c0.6-0.5,1-1.2,1-2.1c0-0.5-0.1-0.9-0.4-1.3c-0.3-0.4-0.9-0.6-1.7-0.8l-1.1-0.2
			c-0.6-0.1-1.1-0.3-1.6-0.4c-0.5-0.2-0.9-0.4-1.3-0.7c-0.4-0.3-0.6-0.7-0.8-1.1c-0.2-0.4-0.3-1-0.3-1.6c0-0.6,0.1-1.2,0.3-1.8
			c0.2-0.6,0.6-1.1,1-1.5c0.5-0.4,1-0.8,1.7-1c0.7-0.3,1.5-0.4,2.4-0.4c1.1,0,2,0.2,2.8,0.6c0.8,0.4,1.5,0.9,2,1.6l-1.5,1.4
			c-0.3-0.5-0.8-0.8-1.3-1.1c-0.6-0.3-1.3-0.5-2.2-0.5c-1.1,0-1.9,0.2-2.4,0.7c-0.5,0.5-0.8,1.1-0.8,1.8c0,0.5,0.1,0.9,0.4,1.3
			c0.3,0.3,0.9,0.6,1.7,0.8l1.1,0.2c0.6,0.1,1.1,0.3,1.6,0.5c0.5,0.2,0.9,0.4,1.3,0.8c0.3,0.3,0.6,0.7,0.8,1.1
			c0.2,0.4,0.3,1,0.3,1.6c0,0.8-0.1,1.4-0.4,2c-0.3,0.6-0.7,1.1-1.2,1.5c-0.5,0.4-1.1,0.7-1.7,1C-156.7,40.2-157.4,40.3-158.2,40.3z
			"/>
		<path class="st7" d="M-147.1,40c-0.7,0-1.2-0.2-1.5-0.5c-0.3-0.3-0.5-0.8-0.5-1.3c0-0.2,0-0.4,0.1-0.7l2.5-12.4h2.2L-147,38h2.1
			l-0.4,2H-147.1z M-144.7,21.6c-0.4,0-0.8-0.1-0.9-0.3c-0.2-0.2-0.3-0.4-0.3-0.7c0-0.1,0-0.1,0-0.2c0-0.1,0-0.3,0.1-0.6
			c0.1-0.4,0.2-0.6,0.5-0.9c0.2-0.2,0.6-0.3,1.1-0.3c0.4,0,0.8,0.1,0.9,0.3c0.2,0.2,0.3,0.4,0.3,0.7c0,0.1,0,0.1,0,0.2
			c0,0.1,0,0.3-0.1,0.6c-0.1,0.4-0.2,0.6-0.5,0.9C-143.8,21.5-144.2,21.6-144.7,21.6z"/>
		<path class="st7" d="M-139.1,40c-0.7,0-1.2-0.2-1.5-0.5c-0.3-0.3-0.5-0.8-0.5-1.3c0-0.2,0-0.4,0.1-0.7l2.1-10.4h-2.2l0.4-2h1.1
			c0.5,0,0.9-0.1,1.1-0.3c0.2-0.2,0.3-0.6,0.4-1.1l0.5-2.7h2l-0.8,4.1h3.1l-0.4,2h-3.1l-2.2,11h2.9l-0.4,2H-139.1z"/>
	</g>
	<g>
		<path class="st8" d="M-125,30.6l-3.5,3.3l-1.2,6h-3.1l4-20.1h3.1l-2,10h0.2l3.3-3.5l6.4-6.5h3.9l-8.7,8.7l5.3,11.4h-3.4L-125,30.6
			z"/>
		<path class="st8" d="M-109.8,40.3c-1.7,0-3.1-0.5-4.1-1.6c-1-1.1-1.6-2.6-1.6-4.6c0-1.3,0.2-2.5,0.6-3.7c0.4-1.2,0.9-2.2,1.6-3
			c0.7-0.9,1.5-1.5,2.4-2c0.9-0.5,2-0.8,3.1-0.8c1.7,0,3.1,0.5,4.1,1.6s1.6,2.6,1.6,4.6c0,1.3-0.2,2.5-0.6,3.7
			c-0.4,1.1-0.9,2.2-1.6,3c-0.7,0.9-1.5,1.5-2.4,2C-107.6,40.1-108.6,40.3-109.8,40.3z M-109.5,37.8c0.9,0,1.8-0.3,2.5-1
			c0.7-0.7,1.2-1.7,1.5-3l0.5-2.4c0-0.2,0.1-0.3,0.1-0.5c0-0.2,0-0.4,0-0.6c0-0.9-0.2-1.7-0.7-2.2c-0.5-0.6-1.2-0.8-2.2-0.8
			c-0.9,0-1.8,0.3-2.5,1c-0.7,0.7-1.2,1.7-1.5,3l-0.5,2.4c0,0.2-0.1,0.4-0.1,0.5c0,0.2,0,0.4,0,0.6c0,0.9,0.2,1.7,0.7,2.2
			C-111.2,37.5-110.5,37.8-109.5,37.8z"/>
		<path class="st8" d="M-94.8,40.3c-1.2,0-2.3-0.2-3.3-0.7c-1-0.5-1.9-1.1-2.5-2l2-1.8c0.5,0.6,1,1.1,1.7,1.5
			c0.6,0.3,1.4,0.5,2.2,0.5c1,0,1.7-0.2,2.2-0.6c0.5-0.4,0.8-1,0.8-1.7c0-0.4-0.1-0.7-0.4-1c-0.3-0.3-0.7-0.5-1.5-0.6l-1.3-0.2
			c-1.2-0.2-2.2-0.6-2.9-1.2c-0.7-0.6-1.1-1.5-1.1-2.7c0-0.7,0.1-1.3,0.4-1.9c0.2-0.6,0.6-1.1,1.1-1.6c0.5-0.5,1.1-0.8,1.8-1.1
			c0.7-0.3,1.6-0.4,2.6-0.4c2.2,0,4,0.8,5.2,2.3l-2,1.8c-0.3-0.5-0.8-0.8-1.4-1.1c-0.6-0.3-1.2-0.4-2-0.4c-0.9,0-1.6,0.2-2.1,0.6
			c-0.5,0.4-0.7,0.9-0.7,1.5c0,0.4,0.1,0.8,0.4,1.1c0.3,0.3,0.7,0.5,1.5,0.6l1.3,0.2c1.3,0.2,2.2,0.6,2.9,1.2
			c0.7,0.6,1.1,1.5,1.1,2.7c0,0.8-0.1,1.4-0.4,2.1c-0.3,0.6-0.7,1.2-1.2,1.6c-0.5,0.5-1.1,0.8-1.9,1.1C-93,40.2-93.8,40.3-94.8,40.3
			z"/>
		<path class="st8" d="M-80,40.3c-1.7,0-3.1-0.5-4.1-1.6c-1-1.1-1.6-2.6-1.6-4.6c0-1.3,0.2-2.5,0.6-3.7c0.4-1.2,0.9-2.2,1.6-3
			c0.7-0.9,1.5-1.5,2.4-2c0.9-0.5,2-0.8,3.1-0.8c1.7,0,3.1,0.5,4.1,1.6s1.6,2.6,1.6,4.6c0,1.3-0.2,2.5-0.6,3.7
			c-0.4,1.1-0.9,2.2-1.6,3c-0.7,0.9-1.5,1.5-2.4,2C-77.9,40.1-78.9,40.3-80,40.3z M-79.8,37.8c0.9,0,1.8-0.3,2.5-1
			c0.7-0.7,1.2-1.7,1.5-3l0.5-2.4c0-0.2,0.1-0.3,0.1-0.5c0-0.2,0-0.4,0-0.6c0-0.9-0.2-1.7-0.7-2.2c-0.5-0.6-1.2-0.8-2.2-0.8
			c-0.9,0-1.8,0.3-2.5,1c-0.7,0.7-1.2,1.7-1.5,3l-0.5,2.4c0,0.2-0.1,0.4-0.1,0.5c0,0.2,0,0.4,0,0.6c0,0.9,0.2,1.7,0.7,2.2
			C-81.5,37.5-80.8,37.8-79.8,37.8z"/>
		<path class="st8" d="M-67.8,40l-2.1-15h2.9l0.8,6.7l0.5,5.6h0.1l2.6-5.6l3.4-6.7h3.2l-8.1,15H-67.8z"/>
		<path class="st8" d="M-50.7,40.3c-1.7,0-3.1-0.5-4.1-1.6c-1-1.1-1.6-2.6-1.6-4.6c0-1.3,0.2-2.5,0.6-3.7c0.4-1.2,0.9-2.2,1.6-3
			c0.7-0.9,1.5-1.5,2.4-2c0.9-0.5,2-0.8,3.1-0.8c1.7,0,3.1,0.5,4.1,1.6c1,1.1,1.6,2.6,1.6,4.6c0,1.3-0.2,2.5-0.6,3.7
			c-0.4,1.1-0.9,2.2-1.6,3c-0.7,0.9-1.5,1.5-2.4,2C-48.5,40.1-49.5,40.3-50.7,40.3z M-50.4,37.8c0.9,0,1.8-0.3,2.5-1
			c0.7-0.7,1.2-1.7,1.5-3l0.5-2.4c0-0.2,0.1-0.3,0.1-0.5c0-0.2,0-0.4,0-0.6c0-0.9-0.2-1.7-0.7-2.2c-0.5-0.6-1.2-0.8-2.2-0.8
			c-0.9,0-1.8,0.3-2.5,1c-0.7,0.7-1.2,1.7-1.5,3l-0.5,2.4c0,0.2-0.1,0.4-0.1,0.5c0,0.2,0,0.4,0,0.6c0,0.9,0.2,1.7,0.7,2.2
			C-52.1,37.5-51.4,37.8-50.4,37.8z"/>
	</g>
	<g>
		<polygon class="st7" points="-80.3,9.9 -80.5,13.9 -76.8,15.4 -80.7,16.4 -80.9,20.4 -83.1,17 -87,18 -84.4,14.9 -86.6,11.5 
			-82.8,13 		"/>
		<polygon class="st7" points="-69.3,4.3 -71.1,7.9 -68.2,10.7 -72.2,10.1 -74,13.7 -74.7,9.7 -78.6,9.1 -75.1,7.3 -75.7,3.3 
			-72.9,6.1 		"/>
		<polygon class="st7" points="-57,3.4 -60.1,6 -58.6,9.7 -62,7.6 -65,10.2 -64.1,6.3 -67.5,4.2 -63.5,3.9 -62.6,0 -61,3.7 		"/>
		<polygon class="st7" points="-45.4,7.4 -49.2,8.6 -49.3,12.6 -51.6,9.3 -55.4,10.5 -53,7.3 -55.3,4 -51.5,5.3 -49.1,2.1 
			-49.2,6.1 		"/>
		<polygon class="st7" points="-36.2,15.6 -40.2,15.2 -41.8,18.9 -42.7,15 -46.7,14.6 -43.2,12.6 -44.1,8.6 -41.1,11.3 -37.6,9.3 
			-39.2,13 		"/>
		<polygon class="st7" points="-31,26.8 -34.5,24.8 -37.5,27.6 -36.7,23.7 -40.2,21.7 -36.2,21.2 -35.5,17.3 -33.8,20.9 -29.8,20.4 
			-32.7,23.1 		"/>
	</g>
</g>
<g>
	<g>
		<path class="st9" d="M-181.6-24.3l-2.3-14.9h2.2l1.1,7.4l0.6,5.4h0.1l2.7-5.4l4-7.4h2.4l-8.1,14.9H-181.6z"/>
		<path class="st9" d="M-168.3-24.3c-0.7,0-1.2-0.2-1.5-0.5c-0.3-0.3-0.5-0.8-0.5-1.3c0-0.2,0-0.4,0.1-0.7l2.5-12.4h2.2l-2.6,12.9
			h2.1l-0.4,2H-168.3z M-165.9-42.7c-0.4,0-0.8-0.1-0.9-0.3c-0.2-0.2-0.3-0.4-0.3-0.7c0-0.1,0-0.1,0-0.2c0-0.1,0-0.3,0.1-0.6
			c0.1-0.4,0.2-0.6,0.5-0.9c0.2-0.2,0.6-0.3,1.1-0.3c0.4,0,0.8,0.1,0.9,0.3c0.2,0.2,0.3,0.4,0.3,0.7c0,0.1,0,0.1,0,0.2
			c0,0.1,0,0.3-0.1,0.6c-0.1,0.4-0.2,0.6-0.5,0.9C-165-42.8-165.4-42.7-165.9-42.7z"/>
		<path class="st9" d="M-158.2-23.9c-1.2,0-2.2-0.2-3.2-0.7c-1-0.5-1.8-1.1-2.4-2l1.5-1.4c0.5,0.7,1.1,1.2,1.8,1.6
			c0.7,0.4,1.4,0.5,2.3,0.5c1,0,1.8-0.2,2.4-0.7c0.6-0.5,1-1.2,1-2.1c0-0.5-0.1-0.9-0.4-1.3c-0.3-0.4-0.9-0.6-1.7-0.8l-1.1-0.2
			c-0.6-0.1-1.1-0.3-1.6-0.4c-0.5-0.2-0.9-0.4-1.3-0.7c-0.4-0.3-0.6-0.7-0.8-1.1c-0.2-0.4-0.3-1-0.3-1.6c0-0.6,0.1-1.2,0.3-1.8
			c0.2-0.6,0.6-1.1,1-1.5c0.5-0.4,1-0.8,1.7-1c0.7-0.3,1.5-0.4,2.4-0.4c1.1,0,2,0.2,2.8,0.6c0.8,0.4,1.5,0.9,2,1.6l-1.5,1.4
			c-0.3-0.5-0.8-0.8-1.3-1.1c-0.6-0.3-1.3-0.5-2.2-0.5c-1.1,0-1.9,0.2-2.4,0.7c-0.5,0.5-0.8,1.1-0.8,1.8c0,0.5,0.1,0.9,0.4,1.3
			c0.3,0.3,0.9,0.6,1.7,0.8l1.1,0.2c0.6,0.1,1.1,0.3,1.6,0.5c0.5,0.2,0.9,0.4,1.3,0.8c0.3,0.3,0.6,0.7,0.8,1.1
			c0.2,0.4,0.3,1,0.3,1.6c0,0.8-0.1,1.4-0.4,2c-0.3,0.6-0.7,1.1-1.2,1.5c-0.5,0.4-1.1,0.7-1.7,1C-156.7-24-157.4-23.9-158.2-23.9z"
			/>
		<path class="st9" d="M-147.1-24.3c-0.7,0-1.2-0.2-1.5-0.5c-0.3-0.3-0.5-0.8-0.5-1.3c0-0.2,0-0.4,0.1-0.7l2.5-12.4h2.2l-2.6,12.9
			h2.1l-0.4,2H-147.1z M-144.7-42.7c-0.4,0-0.8-0.1-0.9-0.3c-0.2-0.2-0.3-0.4-0.3-0.7c0-0.1,0-0.1,0-0.2c0-0.1,0-0.3,0.1-0.6
			c0.1-0.4,0.2-0.6,0.5-0.9c0.2-0.2,0.6-0.3,1.1-0.3c0.4,0,0.8,0.1,0.9,0.3c0.2,0.2,0.3,0.4,0.3,0.7c0,0.1,0,0.1,0,0.2
			c0,0.1,0,0.3-0.1,0.6c-0.1,0.4-0.2,0.6-0.5,0.9C-143.8-42.8-144.2-42.7-144.7-42.7z"/>
		<path class="st9" d="M-139.1-24.3c-0.7,0-1.2-0.2-1.5-0.5c-0.3-0.3-0.5-0.8-0.5-1.3c0-0.2,0-0.4,0.1-0.7l2.1-10.4h-2.2l0.4-2h1.1
			c0.5,0,0.9-0.1,1.1-0.3c0.2-0.2,0.3-0.6,0.4-1.1l0.5-2.7h2l-0.8,4.1h3.1l-0.4,2h-3.1l-2.2,11h2.9l-0.4,2H-139.1z"/>
	</g>
	<g>
		<path class="st7" d="M-125-33.6l-3.5,3.3l-1.2,6h-3.1l4-20.1h3.1l-2,10h0.2l3.3-3.5l6.4-6.5h3.9l-8.7,8.7l5.3,11.4h-3.4L-125-33.6
			z"/>
		<path class="st7" d="M-109.8-23.9c-1.7,0-3.1-0.5-4.1-1.6c-1-1.1-1.6-2.6-1.6-4.6c0-1.3,0.2-2.5,0.6-3.7c0.4-1.2,0.9-2.2,1.6-3
			c0.7-0.9,1.5-1.5,2.4-2c0.9-0.5,2-0.8,3.1-0.8c1.7,0,3.1,0.5,4.1,1.6c1,1.1,1.6,2.6,1.6,4.6c0,1.3-0.2,2.5-0.6,3.7
			c-0.4,1.1-0.9,2.2-1.6,3c-0.7,0.9-1.5,1.5-2.4,2C-107.6-24.2-108.6-23.9-109.8-23.9z M-109.5-26.4c0.9,0,1.8-0.3,2.5-1
			c0.7-0.7,1.2-1.7,1.5-3l0.5-2.4c0-0.2,0.1-0.3,0.1-0.5c0-0.2,0-0.4,0-0.6c0-0.9-0.2-1.7-0.7-2.2c-0.5-0.6-1.2-0.8-2.2-0.8
			c-0.9,0-1.8,0.3-2.5,1c-0.7,0.7-1.2,1.7-1.5,3l-0.5,2.4c0,0.2-0.1,0.4-0.1,0.5c0,0.2,0,0.4,0,0.6c0,0.9,0.2,1.7,0.7,2.2
			C-111.2-26.7-110.5-26.4-109.5-26.4z"/>
		<path class="st7" d="M-94.8-23.9c-1.2,0-2.3-0.2-3.3-0.7c-1-0.5-1.9-1.1-2.5-2l2-1.8c0.5,0.6,1,1.1,1.7,1.5
			c0.6,0.3,1.4,0.5,2.2,0.5c1,0,1.7-0.2,2.2-0.6c0.5-0.4,0.8-1,0.8-1.7c0-0.4-0.1-0.7-0.4-1c-0.3-0.3-0.7-0.5-1.5-0.6l-1.3-0.2
			c-1.2-0.2-2.2-0.6-2.9-1.2c-0.7-0.6-1.1-1.5-1.1-2.7c0-0.7,0.1-1.3,0.4-1.9c0.2-0.6,0.6-1.1,1.1-1.6c0.5-0.5,1.1-0.8,1.8-1.1
			c0.7-0.3,1.6-0.4,2.6-0.4c2.2,0,4,0.8,5.2,2.3l-2,1.8c-0.3-0.5-0.8-0.8-1.4-1.1c-0.6-0.3-1.2-0.4-2-0.4c-0.9,0-1.6,0.2-2.1,0.6
			c-0.5,0.4-0.7,0.9-0.7,1.5c0,0.4,0.1,0.8,0.4,1.1c0.3,0.3,0.7,0.5,1.5,0.6l1.3,0.2c1.3,0.2,2.2,0.6,2.9,1.2
			c0.7,0.6,1.1,1.5,1.1,2.7c0,0.8-0.1,1.4-0.4,2.1c-0.3,0.6-0.7,1.2-1.2,1.6c-0.5,0.5-1.1,0.8-1.9,1.1C-93-24.1-93.8-23.9-94.8-23.9
			z"/>
		<path class="st7" d="M-80-23.9c-1.7,0-3.1-0.5-4.1-1.6c-1-1.1-1.6-2.6-1.6-4.6c0-1.3,0.2-2.5,0.6-3.7c0.4-1.2,0.9-2.2,1.6-3
			c0.7-0.9,1.5-1.5,2.4-2c0.9-0.5,2-0.8,3.1-0.8c1.7,0,3.1,0.5,4.1,1.6c1,1.1,1.6,2.6,1.6,4.6c0,1.3-0.2,2.5-0.6,3.7
			c-0.4,1.1-0.9,2.2-1.6,3c-0.7,0.9-1.5,1.5-2.4,2C-77.9-24.2-78.9-23.9-80-23.9z M-79.8-26.4c0.9,0,1.8-0.3,2.5-1
			c0.7-0.7,1.2-1.7,1.5-3l0.5-2.4c0-0.2,0.1-0.3,0.1-0.5c0-0.2,0-0.4,0-0.6c0-0.9-0.2-1.7-0.7-2.2c-0.5-0.6-1.2-0.8-2.2-0.8
			c-0.9,0-1.8,0.3-2.5,1c-0.7,0.7-1.2,1.7-1.5,3l-0.5,2.4c0,0.2-0.1,0.4-0.1,0.5c0,0.2,0,0.4,0,0.6c0,0.9,0.2,1.7,0.7,2.2
			C-81.5-26.7-80.8-26.4-79.8-26.4z"/>
		<path class="st7" d="M-67.8-24.3l-2.1-15h2.9l0.8,6.7l0.5,5.6h0.1l2.6-5.6l3.4-6.7h3.2l-8.1,15H-67.8z"/>
		<path class="st7" d="M-50.7-23.9c-1.7,0-3.1-0.5-4.1-1.6c-1-1.1-1.6-2.6-1.6-4.6c0-1.3,0.2-2.5,0.6-3.7c0.4-1.2,0.9-2.2,1.6-3
			c0.7-0.9,1.5-1.5,2.4-2c0.9-0.5,2-0.8,3.1-0.8c1.7,0,3.1,0.5,4.1,1.6c1,1.1,1.6,2.6,1.6,4.6c0,1.3-0.2,2.5-0.6,3.7
			c-0.4,1.1-0.9,2.2-1.6,3c-0.7,0.9-1.5,1.5-2.4,2C-48.5-24.2-49.5-23.9-50.7-23.9z M-50.4-26.4c0.9,0,1.8-0.3,2.5-1
			c0.7-0.7,1.2-1.7,1.5-3l0.5-2.4c0-0.2,0.1-0.3,0.1-0.5c0-0.2,0-0.4,0-0.6c0-0.9-0.2-1.7-0.7-2.2c-0.5-0.6-1.2-0.8-2.2-0.8
			c-0.9,0-1.8,0.3-2.5,1c-0.7,0.7-1.2,1.7-1.5,3l-0.5,2.4c0,0.2-0.1,0.4-0.1,0.5c0,0.2,0,0.4,0,0.6c0,0.9,0.2,1.7,0.7,2.2
			C-52.1-26.7-51.4-26.4-50.4-26.4z"/>
	</g>
	<g>
		<polygon class="st9" points="-80.3,-54.4 -80.5,-50.4 -76.8,-48.9 -80.7,-47.9 -80.9,-43.9 -83.1,-47.3 -87,-46.3 -84.4,-49.4 
			-86.6,-52.8 -82.8,-51.3 		"/>
		<polygon class="st9" points="-69.3,-60 -71.1,-56.4 -68.2,-53.6 -72.2,-54.2 -74,-50.6 -74.7,-54.5 -78.6,-55.1 -75.1,-57 
			-75.7,-60.9 -72.9,-58.1 		"/>
		<polygon class="st9" points="-57,-60.8 -60.1,-58.2 -58.6,-54.5 -62,-56.6 -65,-54 -64.1,-57.9 -67.5,-60.1 -63.5,-60.4 
			-62.6,-64.3 -61,-60.5 		"/>
		<polygon class="st9" points="-45.4,-56.9 -49.2,-55.7 -49.3,-51.6 -51.6,-54.9 -55.4,-53.7 -53,-56.9 -55.3,-60.2 -51.5,-58.9 
			-49.1,-62.2 -49.2,-58.1 		"/>
		<polygon class="st9" points="-36.2,-48.6 -40.2,-49 -41.8,-45.3 -42.7,-49.3 -46.7,-49.7 -43.2,-51.7 -44.1,-55.6 -41.1,-53 
			-37.6,-55 -39.2,-51.3 		"/>
		<polygon class="st9" points="-31,-37.5 -34.5,-39.4 -37.5,-36.7 -36.7,-40.6 -40.2,-42.5 -36.2,-43 -35.5,-47 -33.8,-43.4 
			-29.8,-43.9 -32.7,-41.1 		"/>
	</g>
</g>
<g>
	<g>
		<path class="st9" d="M-1290,27.1l-2.3-14.9h2.2l1.1,7.4l0.6,5.4h0.1l2.7-5.4l4-7.4h2.4l-8.1,14.9H-1290z"/>
		<path class="st9" d="M-1276.7,27.1c-0.7,0-1.2-0.2-1.5-0.5c-0.3-0.3-0.5-0.8-0.5-1.3c0-0.2,0-0.4,0.1-0.7l2.5-12.4h2.2l-2.6,12.9
			h2.1l-0.4,2H-1276.7z M-1274.3,8.7c-0.4,0-0.8-0.1-0.9-0.3c-0.2-0.2-0.3-0.4-0.3-0.7c0-0.1,0-0.1,0-0.2c0-0.1,0-0.3,0.1-0.6
			c0.1-0.4,0.2-0.6,0.5-0.9c0.2-0.2,0.6-0.3,1.1-0.3c0.4,0,0.8,0.1,0.9,0.3c0.2,0.2,0.3,0.4,0.3,0.7c0,0.1,0,0.1,0,0.2
			c0,0.1,0,0.3-0.1,0.6c-0.1,0.4-0.2,0.6-0.5,0.9C-1273.4,8.6-1273.8,8.7-1274.3,8.7z"/>
		<path class="st9" d="M-1266.6,27.4c-1.2,0-2.2-0.2-3.2-0.7c-1-0.5-1.8-1.1-2.4-2l1.5-1.4c0.5,0.7,1.1,1.2,1.8,1.6
			c0.7,0.4,1.4,0.5,2.3,0.5c1,0,1.8-0.2,2.4-0.7c0.6-0.5,1-1.2,1-2.1c0-0.5-0.1-0.9-0.4-1.3c-0.3-0.4-0.9-0.6-1.7-0.8l-1.1-0.2
			c-0.6-0.1-1.1-0.3-1.6-0.4c-0.5-0.2-0.9-0.4-1.3-0.7c-0.4-0.3-0.6-0.7-0.8-1.1c-0.2-0.4-0.3-1-0.3-1.6c0-0.6,0.1-1.2,0.3-1.8
			c0.2-0.6,0.6-1.1,1-1.5c0.5-0.4,1-0.8,1.7-1c0.7-0.3,1.5-0.4,2.4-0.4c1.1,0,2,0.2,2.8,0.6c0.8,0.4,1.5,0.9,2,1.6l-1.5,1.4
			c-0.3-0.5-0.8-0.8-1.3-1.1c-0.6-0.3-1.3-0.5-2.2-0.5c-1.1,0-1.9,0.2-2.4,0.7c-0.5,0.5-0.8,1.1-0.8,1.8c0,0.5,0.1,0.9,0.4,1.3
			c0.3,0.3,0.9,0.6,1.7,0.8l1.1,0.2c0.6,0.1,1.1,0.3,1.6,0.5s0.9,0.4,1.3,0.8c0.3,0.3,0.6,0.7,0.8,1.1c0.2,0.4,0.3,1,0.3,1.6
			c0,0.8-0.1,1.4-0.4,2c-0.3,0.6-0.7,1.1-1.2,1.5c-0.5,0.4-1.1,0.7-1.7,1C-1265,27.3-1265.8,27.4-1266.6,27.4z"/>
		<path class="st9" d="M-1255.5,27.1c-0.7,0-1.2-0.2-1.5-0.5c-0.3-0.3-0.5-0.8-0.5-1.3c0-0.2,0-0.4,0.1-0.7l2.5-12.4h2.2l-2.6,12.9
			h2.1l-0.4,2H-1255.5z M-1253.1,8.7c-0.4,0-0.8-0.1-0.9-0.3c-0.2-0.2-0.3-0.4-0.3-0.7c0-0.1,0-0.1,0-0.2c0-0.1,0-0.3,0.1-0.6
			c0.1-0.4,0.2-0.6,0.5-0.9c0.2-0.2,0.6-0.3,1.1-0.3c0.4,0,0.8,0.1,0.9,0.3c0.2,0.2,0.3,0.4,0.3,0.7c0,0.1,0,0.1,0,0.2
			c0,0.1,0,0.3-0.1,0.6c-0.1,0.4-0.2,0.6-0.5,0.9C-1252.2,8.6-1252.6,8.7-1253.1,8.7z"/>
		<path class="st9" d="M-1247.5,27.1c-0.7,0-1.2-0.2-1.5-0.5c-0.3-0.3-0.5-0.8-0.5-1.3c0-0.2,0-0.4,0.1-0.7l2.1-10.4h-2.2l0.4-2h1.1
			c0.5,0,0.9-0.1,1.1-0.3c0.2-0.2,0.3-0.6,0.4-1.1l0.5-2.7h2l-0.8,4.1h3.1l-0.4,2h-3.1l-2.2,11h2.9l-0.4,2H-1247.5z"/>
	</g>
	<g>
		<path class="st10" d="M-1233.4,17.7l-3.5,3.3l-1.2,6h-3.1l4-20.1h3.1l-2,10h0.2l3.3-3.5l6.4-6.5h3.9l-8.7,8.7l5.3,11.4h-3.4
			L-1233.4,17.7z"/>
		<path class="st10" d="M-1218.2,27.4c-1.7,0-3.1-0.5-4.1-1.6c-1-1.1-1.6-2.6-1.6-4.6c0-1.3,0.2-2.5,0.6-3.7c0.4-1.2,0.9-2.2,1.6-3
			c0.7-0.9,1.5-1.5,2.4-2c0.9-0.5,2-0.8,3.1-0.8c1.7,0,3.1,0.5,4.1,1.6c1,1.1,1.6,2.6,1.6,4.6c0,1.3-0.2,2.5-0.6,3.7
			c-0.4,1.1-0.9,2.2-1.6,3c-0.7,0.9-1.5,1.5-2.4,2C-1216,27.2-1217,27.4-1218.2,27.4z M-1217.9,24.9c0.9,0,1.8-0.3,2.5-1
			c0.7-0.7,1.2-1.7,1.5-3l0.5-2.4c0-0.2,0.1-0.3,0.1-0.5c0-0.2,0-0.4,0-0.6c0-0.9-0.2-1.7-0.7-2.2c-0.5-0.6-1.2-0.8-2.2-0.8
			c-0.9,0-1.8,0.3-2.5,1c-0.7,0.7-1.2,1.7-1.5,3l-0.5,2.4c0,0.2-0.1,0.4-0.1,0.5c0,0.2,0,0.4,0,0.6c0,0.9,0.2,1.7,0.7,2.2
			C-1219.6,24.6-1218.9,24.9-1217.9,24.9z"/>
		<path class="st10" d="M-1203.2,27.4c-1.2,0-2.3-0.2-3.3-0.7c-1-0.5-1.9-1.1-2.5-2l2-1.8c0.5,0.6,1,1.1,1.7,1.5
			c0.6,0.3,1.4,0.5,2.2,0.5c1,0,1.7-0.2,2.2-0.6c0.5-0.4,0.8-1,0.8-1.7c0-0.4-0.1-0.7-0.4-1c-0.3-0.3-0.7-0.5-1.5-0.6l-1.3-0.2
			c-1.2-0.2-2.2-0.6-2.9-1.2c-0.7-0.6-1.1-1.5-1.1-2.7c0-0.7,0.1-1.3,0.4-1.9c0.2-0.6,0.6-1.1,1.1-1.6c0.5-0.5,1.1-0.8,1.8-1.1
			c0.7-0.3,1.6-0.4,2.6-0.4c2.2,0,4,0.8,5.2,2.3l-2,1.8c-0.3-0.5-0.8-0.8-1.4-1.1c-0.6-0.3-1.2-0.4-2-0.4c-0.9,0-1.6,0.2-2.1,0.6
			c-0.5,0.4-0.7,0.9-0.7,1.5c0,0.4,0.1,0.8,0.4,1.1c0.3,0.3,0.7,0.5,1.5,0.6l1.3,0.2c1.3,0.2,2.2,0.6,2.9,1.2
			c0.7,0.6,1.1,1.5,1.1,2.7c0,0.8-0.1,1.4-0.4,2.1c-0.3,0.6-0.7,1.2-1.2,1.6c-0.5,0.5-1.2,0.8-1.9,1.1
			C-1201.4,27.3-1202.2,27.4-1203.2,27.4z"/>
		<path class="st10" d="M-1188.4,27.4c-1.7,0-3.1-0.5-4.1-1.6c-1-1.1-1.6-2.6-1.6-4.6c0-1.3,0.2-2.5,0.6-3.7c0.4-1.2,0.9-2.2,1.6-3
			c0.7-0.9,1.5-1.5,2.4-2c0.9-0.5,2-0.8,3.1-0.8c1.7,0,3.1,0.5,4.1,1.6s1.6,2.6,1.6,4.6c0,1.3-0.2,2.5-0.6,3.7
			c-0.4,1.1-0.9,2.2-1.6,3c-0.7,0.9-1.5,1.5-2.4,2C-1186.3,27.2-1187.3,27.4-1188.4,27.4z M-1188.2,24.9c0.9,0,1.8-0.3,2.5-1
			c0.7-0.7,1.2-1.7,1.5-3l0.5-2.4c0-0.2,0.1-0.3,0.1-0.5c0-0.2,0-0.4,0-0.6c0-0.9-0.2-1.7-0.7-2.2c-0.5-0.6-1.2-0.8-2.2-0.8
			c-0.9,0-1.8,0.3-2.5,1c-0.7,0.7-1.2,1.7-1.5,3l-0.5,2.4c0,0.2-0.1,0.4-0.1,0.5c0,0.2,0,0.4,0,0.6c0,0.9,0.2,1.7,0.7,2.2
			C-1189.9,24.6-1189.2,24.9-1188.2,24.9z"/>
		<path class="st10" d="M-1176.2,27.1l-2.1-15h2.9l0.8,6.7l0.5,5.6h0.1l2.6-5.6l3.4-6.7h3.2l-8.1,15H-1176.2z"/>
		<path class="st10" d="M-1159,27.4c-1.7,0-3.1-0.5-4.1-1.6c-1-1.1-1.6-2.6-1.6-4.6c0-1.3,0.2-2.5,0.6-3.7c0.4-1.2,0.9-2.2,1.6-3
			c0.7-0.9,1.5-1.5,2.4-2c0.9-0.5,2-0.8,3.1-0.8c1.7,0,3.1,0.5,4.1,1.6s1.6,2.6,1.6,4.6c0,1.3-0.2,2.5-0.6,3.7
			c-0.4,1.1-0.9,2.2-1.6,3c-0.7,0.9-1.5,1.5-2.4,2C-1156.9,27.2-1157.9,27.4-1159,27.4z M-1158.8,24.9c0.9,0,1.8-0.3,2.5-1
			c0.7-0.7,1.2-1.7,1.5-3l0.5-2.4c0-0.2,0.1-0.3,0.1-0.5c0-0.2,0-0.4,0-0.6c0-0.9-0.2-1.7-0.7-2.2c-0.5-0.6-1.2-0.8-2.2-0.8
			c-0.9,0-1.8,0.3-2.5,1c-0.7,0.7-1.2,1.7-1.5,3l-0.5,2.4c0,0.2-0.1,0.4-0.1,0.5c0,0.2,0,0.4,0,0.6c0,0.9,0.2,1.7,0.7,2.2
			C-1160.5,24.6-1159.8,24.9-1158.8,24.9z"/>
	</g>
	<g>
		<polygon class="st9" points="-1188.6,-3 -1188.9,1 -1185.2,2.5 -1189.1,3.5 -1189.3,7.5 -1191.5,4.1 -1195.4,5.1 -1192.8,2 
			-1194.9,-1.4 -1191.2,0.1 		"/>
		<polygon class="st9" points="-1177.7,-8.6 -1179.5,-5 -1176.6,-2.2 -1180.6,-2.8 -1182.4,0.8 -1183.1,-3.2 -1187,-3.8 
			-1183.5,-5.6 -1184.1,-9.6 -1181.3,-6.8 		"/>
		<polygon class="st9" points="-1165.4,-9.5 -1168.5,-6.9 -1166.9,-3.2 -1170.4,-5.3 -1173.4,-2.7 -1172.5,-6.6 -1175.9,-8.7 
			-1171.9,-9 -1170.9,-12.9 -1169.4,-9.2 		"/>
		<polygon class="st9" points="-1153.8,-5.5 -1157.6,-4.3 -1157.6,-0.3 -1160,-3.6 -1163.8,-2.4 -1161.4,-5.6 -1163.7,-8.9 
			-1159.9,-7.6 -1157.5,-10.8 -1157.6,-6.8 		"/>
		<polygon class="st9" points="-1144.6,2.7 -1148.6,2.3 -1150.2,6 -1151.1,2.1 -1155.1,1.7 -1151.6,-0.3 -1152.5,-4.3 -1149.5,-1.6 
			-1146,-3.6 -1147.6,0.1 		"/>
		<polygon class="st9" points="-1139.4,13.9 -1142.9,11.9 -1145.8,14.7 -1145.1,10.8 -1148.6,8.8 -1144.6,8.3 -1143.9,4.4 
			-1142.2,8 -1138.2,7.5 -1141.1,10.2 		"/>
	</g>
</g>
<g>
	<g>
		<path class="st11" d="M-1583,1987.4l-7.3-47.6h6.9l3.5,23.5l1.9,17.3h0.5l8.6-17.3l12.7-23.5h7.6l-26,47.6H-1583z"/>
		<path class="st11" d="M-1540.6,1987.4c-2.2,0-3.8-0.5-4.8-1.6c-1.1-1.1-1.6-2.5-1.6-4.2c0-0.6,0.1-1.3,0.3-2.2l7.9-39.6h7.1
			l-8.3,41.3h6.7l-1.2,6.3H-1540.6z M-1532.8,1928.6c-1.4,0-2.4-0.3-3-1c-0.6-0.6-0.9-1.4-0.9-2.3c0-0.2,0-0.4,0-0.8
			c0-0.3,0.1-0.9,0.3-1.8c0.2-1.2,0.8-2.1,1.5-2.7c0.8-0.6,1.9-1,3.5-1c1.4,0,2.4,0.3,3,1c0.6,0.6,0.9,1.4,0.9,2.3
			c0,0.2,0,0.4,0,0.8c0,0.3-0.1,0.9-0.3,1.8c-0.2,1.2-0.8,2.1-1.5,2.7C-1530.1,1928.3-1531.3,1928.6-1532.8,1928.6z"/>
		<path class="st11" d="M-1508.2,1988.5c-3.7,0-7.1-0.8-10.3-2.3c-3.2-1.5-5.8-3.7-7.7-6.4l4.9-4.3c1.7,2.2,3.6,3.9,5.7,5
			c2.2,1.2,4.6,1.7,7.4,1.7c3.1,0,5.7-0.7,7.7-2.2s3-3.7,3-6.6c0-1.6-0.5-2.9-1.4-4.1c-1-1.1-2.8-2-5.6-2.5l-3.6-0.7
			c-1.8-0.4-3.5-0.8-5-1.4c-1.6-0.6-2.9-1.4-4.1-2.3c-1.1-1-2-2.1-2.7-3.5c-0.6-1.4-1-3.1-1-5c0-2,0.4-3.9,1.1-5.7
			c0.7-1.8,1.8-3.4,3.3-4.8c1.5-1.4,3.3-2.5,5.5-3.3c2.2-0.8,4.8-1.2,7.7-1.2c3.5,0,6.5,0.6,9,1.8c2.5,1.2,4.7,2.9,6.5,5.2l-4.9,4.4
			c-1-1.5-2.5-2.7-4.2-3.7c-1.8-1-4.1-1.5-6.9-1.5c-3.5,0-6.1,0.8-7.7,2.3c-1.6,1.5-2.4,3.5-2.4,5.8c0,1.6,0.5,3,1.4,4.1
			c1,1.1,2.8,1.9,5.5,2.4l3.6,0.7c1.9,0.4,3.6,0.9,5.2,1.5c1.6,0.6,2.9,1.4,4,2.4c1.1,1,2,2.2,2.6,3.6c0.6,1.4,0.9,3.1,0.9,5.1
			c0,2.4-0.4,4.6-1.3,6.5c-0.9,1.9-2.1,3.6-3.7,4.9c-1.6,1.3-3.4,2.4-5.6,3.1C-1503.3,1988.1-1505.7,1988.5-1508.2,1988.5z"/>
		<path class="st11" d="M-1472.9,1987.4c-2.2,0-3.8-0.5-4.8-1.6c-1.1-1.1-1.6-2.5-1.6-4.2c0-0.6,0.1-1.3,0.3-2.2l7.9-39.6h7.1
			l-8.3,41.3h6.7l-1.2,6.3H-1472.9z M-1465,1928.6c-1.4,0-2.4-0.3-3-1c-0.6-0.6-0.9-1.4-0.9-2.3c0-0.2,0-0.4,0-0.8
			c0-0.3,0.1-0.9,0.3-1.8c0.2-1.2,0.8-2.1,1.5-2.7c0.8-0.6,1.9-1,3.5-1c1.4,0,2.4,0.3,3,1c0.6,0.6,0.9,1.4,0.9,2.3
			c0,0.2,0,0.4,0,0.8c0,0.3-0.1,0.9-0.3,1.8c-0.2,1.2-0.8,2.1-1.5,2.7C-1462.3,1928.3-1463.5,1928.6-1465,1928.6z"/>
		<path class="st11" d="M-1447.1,1987.4c-2.2,0-3.8-0.5-4.8-1.6c-1.1-1.1-1.6-2.5-1.6-4.2c0-0.6,0.1-1.3,0.3-2.2l6.7-33.3h-7
			l1.2-6.3h3.6c1.7,0,2.9-0.3,3.5-1c0.6-0.7,1-1.8,1.3-3.5l1.8-8.7h6.5l-2.6,13.2h10.1l-1.2,6.3h-10.1l-7.1,35.1h9.3l-1.2,6.3
			H-1447.1z"/>
	</g>
	<g>
		<path class="st12" d="M-1402.2,1957.5l-11.2,10.7l-3.9,19.2h-10l12.9-64.4h10.1l-6.5,32h0.6l10.6-11.3l20.6-20.8h12.4l-27.9,27.9
			l16.8,36.5h-11L-1402.2,1957.5z"/>
		<path class="st12" d="M-1353.5,1988.5c-5.4,0-9.8-1.7-13.1-5.1s-5-8.3-5-14.8c0-4.1,0.6-8,1.8-11.7c1.2-3.7,2.9-6.9,5.1-9.7
			c2.2-2.8,4.8-4.9,7.8-6.5c3-1.6,6.3-2.4,10-2.4c5.4,0,9.8,1.7,13.1,5.1s5,8.3,5,14.8c0,4.2-0.6,8.1-1.8,11.8
			c-1.2,3.7-2.9,6.9-5.1,9.6c-2.2,2.8-4.8,5-7.8,6.5C-1346.5,1987.7-1349.9,1988.5-1353.5,1988.5z M-1352.8,1980.4
			c3,0,5.6-1.1,7.9-3.3c2.2-2.2,3.8-5.5,4.7-9.7l1.6-7.7c0.1-0.5,0.2-1.1,0.3-1.7c0.1-0.6,0.1-1.3,0.1-1.9c0-3-0.8-5.3-2.4-7.1
			c-1.6-1.8-3.9-2.6-7-2.6c-3,0-5.6,1.1-7.9,3.3c-2.2,2.2-3.8,5.5-4.7,9.7l-1.6,7.7c-0.1,0.6-0.2,1.1-0.3,1.7
			c-0.1,0.6-0.1,1.2-0.1,1.9c0,3,0.8,5.3,2.4,7.1C-1358.2,1979.6-1355.8,1980.4-1352.8,1980.4z"/>
		<path class="st12" d="M-1305.5,1988.5c-3.8,0-7.4-0.7-10.7-2.2c-3.3-1.5-5.9-3.6-7.9-6.4l6.3-5.7c1.5,2,3.3,3.6,5.3,4.7
			c2,1.1,4.4,1.6,7.1,1.6c3.1,0,5.5-0.7,7.1-2c1.7-1.3,2.5-3.1,2.5-5.4c0-1.3-0.4-2.4-1.2-3.3c-0.8-0.9-2.4-1.6-4.7-2.1l-4.2-0.7
			c-3.9-0.7-7-2-9.3-3.9c-2.3-1.9-3.5-4.8-3.5-8.7c0-2.1,0.4-4.1,1.2-6.1c0.8-1.9,1.9-3.6,3.5-5.1c1.5-1.5,3.5-2.7,5.8-3.6
			c2.3-0.9,5.1-1.3,8.2-1.3c7.1,0,12.7,2.4,16.6,7.3l-6.3,5.7c-1.1-1.5-2.6-2.7-4.3-3.6c-1.8-0.9-4-1.4-6.5-1.4
			c-3,0-5.2,0.6-6.6,1.9c-1.4,1.3-2.2,2.9-2.2,4.9c0,1.3,0.4,2.5,1.2,3.4c0.8,0.9,2.4,1.6,4.7,2l4.2,0.6c4,0.7,7.1,2,9.4,4
			c2.3,2,3.4,4.9,3.4,8.8c0,2.4-0.4,4.6-1.3,6.6c-0.9,2-2.2,3.7-3.8,5.2c-1.7,1.5-3.7,2.6-6,3.5
			C-1299.9,1988.1-1302.6,1988.5-1305.5,1988.5z"/>
		<path class="st12" d="M-1258.5,1988.5c-5.4,0-9.8-1.7-13.1-5.1c-3.3-3.4-5-8.3-5-14.8c0-4.1,0.6-8,1.8-11.7
			c1.2-3.7,2.9-6.9,5.1-9.7c2.2-2.8,4.8-4.9,7.8-6.5c3-1.6,6.3-2.4,10-2.4c5.4,0,9.8,1.7,13.1,5.1s5,8.3,5,14.8
			c0,4.2-0.6,8.1-1.8,11.8c-1.2,3.7-2.9,6.9-5.1,9.6c-2.2,2.8-4.8,5-7.8,6.5C-1251.5,1987.7-1254.9,1988.5-1258.5,1988.5z
			 M-1257.8,1980.4c3,0,5.6-1.1,7.9-3.3c2.2-2.2,3.8-5.5,4.7-9.7l1.6-7.7c0.1-0.5,0.2-1.1,0.3-1.7c0.1-0.6,0.1-1.3,0.1-1.9
			c0-3-0.8-5.3-2.4-7.1c-1.6-1.8-3.9-2.6-7-2.6c-3,0-5.6,1.1-7.9,3.3c-2.2,2.2-3.8,5.5-4.7,9.7l-1.6,7.7c-0.1,0.6-0.2,1.1-0.3,1.7
			c-0.1,0.6-0.1,1.2-0.1,1.9c0,3,0.8,5.3,2.4,7.1C-1263.2,1979.6-1260.8,1980.4-1257.8,1980.4z"/>
		<path class="st12" d="M-1219.5,1987.4l-6.7-48h9.4l2.7,21.3l1.8,17.9h0.5l8.4-17.9l11-21.3h10.2l-25.7,48H-1219.5z"/>
		<path class="st12" d="M-1164.6,1988.5c-5.4,0-9.8-1.7-13.1-5.1c-3.3-3.4-5-8.3-5-14.8c0-4.1,0.6-8,1.8-11.7
			c1.2-3.7,2.9-6.9,5.1-9.7c2.2-2.8,4.8-4.9,7.8-6.5c3-1.6,6.3-2.4,10-2.4c5.4,0,9.8,1.7,13.1,5.1s5,8.3,5,14.8
			c0,4.2-0.6,8.1-1.8,11.8c-1.2,3.7-2.9,6.9-5.1,9.6c-2.2,2.8-4.8,5-7.8,6.5C-1157.6,1987.7-1161,1988.5-1164.6,1988.5z
			 M-1163.9,1980.4c3,0,5.6-1.1,7.9-3.3c2.2-2.2,3.8-5.5,4.7-9.7l1.6-7.7c0.1-0.5,0.2-1.1,0.3-1.7c0.1-0.6,0.1-1.3,0.1-1.9
			c0-3-0.8-5.3-2.4-7.1c-1.6-1.8-3.9-2.6-7-2.6c-3,0-5.6,1.1-7.9,3.3c-2.2,2.2-3.8,5.5-4.7,9.7l-1.6,7.7c-0.1,0.6-0.2,1.1-0.3,1.7
			c-0.1,0.6-0.1,1.2-0.1,1.9c0,3,0.8,5.3,2.4,7.1C-1169.3,1979.6-1166.9,1980.4-1163.9,1980.4z"/>
	</g>
	<g>
		<polygon class="st11" points="-1259.2,1891.2 -1260,1904 -1248.1,1908.8 -1260.5,1911.9 -1261.3,1924.8 -1268.2,1913.9 
			-1280.6,1917.1 -1272.4,1907.2 -1279.3,1896.4 -1267.4,1901.1 		"/>
		<polygon class="st11" points="-1224.2,1873.3 -1229.9,1884.8 -1220.8,1893.8 -1233.5,1891.9 -1239.2,1903.3 -1241.3,1890.7 
			-1254,1888.7 -1242.6,1882.8 -1244.7,1870.2 -1235.6,1879.2 		"/>
		<polygon class="st11" points="-1184.9,1870.5 -1194.7,1878.8 -1189.8,1890.7 -1200.8,1884 -1210.6,1892.3 -1207.5,1879.8 
			-1218.4,1873 -1205.6,1872.1 -1202.6,1859.6 -1197.7,1871.5 		"/>
		<polygon class="st11" points="-1147.7,1883.3 -1160,1887.1 -1160.1,1899.9 -1167.6,1889.5 -1179.8,1893.3 -1172.1,1883 
			-1179.6,1872.5 -1167.4,1876.6 -1159.7,1866.3 -1159.9,1879.2 		"/>
		<polygon class="st11" points="-1118.5,1909.5 -1131.2,1908.3 -1136.4,1920 -1139.1,1907.5 -1151.9,1906.2 -1140.8,1899.7 
			-1143.6,1887.2 -1134,1895.7 -1122.9,1889.2 -1128,1901 		"/>
		<polygon class="st11" points="-1101.8,1945.2 -1113.1,1939 -1122.4,1947.8 -1120,1935.2 -1131.3,1929 -1118.5,1927.4 
			-1116.2,1914.8 -1110.7,1926.4 -1097.9,1924.8 -1107.3,1933.6 		"/>
	</g>
</g>
<g>
	<g>
		<path class="st9" d="M-1241.9,330.5l-7.3-47.6h6.9l3.5,23.5l1.9,17.3h0.5l8.6-17.3l12.7-23.5h7.6l-26,47.6H-1241.9z"/>
		<path class="st9" d="M-1199.5,330.5c-2.2,0-3.8-0.5-4.8-1.6c-1.1-1.1-1.6-2.5-1.6-4.2c0-0.6,0.1-1.3,0.3-2.2l7.9-39.6h7.1
			l-8.3,41.3h6.7l-1.2,6.3H-1199.5z M-1191.7,271.7c-1.4,0-2.4-0.3-3-1c-0.6-0.6-0.9-1.4-0.9-2.3c0-0.2,0-0.4,0-0.8
			c0-0.3,0.1-0.9,0.3-1.8c0.2-1.2,0.8-2.1,1.5-2.7c0.8-0.6,1.9-1,3.5-1c1.4,0,2.4,0.3,3,1c0.6,0.6,0.9,1.4,0.9,2.3
			c0,0.2,0,0.4,0,0.8c0,0.3-0.1,0.9-0.3,1.8c-0.2,1.2-0.8,2.1-1.5,2.7C-1189,271.4-1190.1,271.7-1191.7,271.7z"/>
		<path class="st9" d="M-1167.1,331.6c-3.7,0-7.1-0.8-10.3-2.3c-3.2-1.5-5.8-3.7-7.7-6.4l4.9-4.3c1.7,2.2,3.6,3.9,5.7,5
			c2.2,1.2,4.6,1.7,7.4,1.7c3.1,0,5.7-0.7,7.7-2.2s3-3.7,3-6.6c0-1.6-0.5-2.9-1.4-4.1c-1-1.1-2.8-2-5.6-2.5l-3.6-0.7
			c-1.8-0.4-3.5-0.8-5-1.4c-1.6-0.6-2.9-1.4-4.1-2.3c-1.1-1-2-2.1-2.7-3.5c-0.6-1.4-1-3.1-1-5c0-2,0.4-3.9,1.1-5.7
			c0.7-1.8,1.8-3.4,3.3-4.8c1.5-1.4,3.3-2.5,5.5-3.3c2.2-0.8,4.8-1.2,7.7-1.2c3.5,0,6.5,0.6,9,1.8c2.5,1.2,4.7,2.9,6.5,5.2l-4.9,4.4
			c-1-1.5-2.5-2.7-4.2-3.7c-1.8-1-4.1-1.5-6.9-1.5c-3.5,0-6.1,0.8-7.7,2.3c-1.6,1.5-2.4,3.5-2.4,5.8c0,1.6,0.5,3,1.4,4.1
			c1,1.1,2.8,1.9,5.5,2.4l3.6,0.7c1.9,0.4,3.6,0.9,5.2,1.5c1.6,0.6,2.9,1.4,4,2.4c1.1,1,2,2.2,2.6,3.6c0.6,1.4,0.9,3.1,0.9,5.1
			c0,2.4-0.4,4.6-1.3,6.5c-0.9,1.9-2.1,3.6-3.7,4.9c-1.6,1.3-3.4,2.4-5.6,3.1C-1162.2,331.2-1164.5,331.6-1167.1,331.6z"/>
		<path class="st9" d="M-1131.7,330.5c-2.2,0-3.8-0.5-4.8-1.6c-1.1-1.1-1.6-2.5-1.6-4.2c0-0.6,0.1-1.3,0.3-2.2l7.9-39.6h7.1
			l-8.3,41.3h6.7l-1.2,6.3H-1131.7z M-1123.9,271.7c-1.4,0-2.4-0.3-3-1c-0.6-0.6-0.9-1.4-0.9-2.3c0-0.2,0-0.4,0-0.8
			c0-0.3,0.1-0.9,0.3-1.8c0.2-1.2,0.8-2.1,1.5-2.7c0.8-0.6,1.9-1,3.5-1c1.4,0,2.4,0.3,3,1c0.6,0.6,0.9,1.4,0.9,2.3
			c0,0.2,0,0.4,0,0.8c0,0.3-0.1,0.9-0.3,1.8c-0.2,1.2-0.8,2.1-1.5,2.7C-1121.2,271.4-1122.4,271.7-1123.9,271.7z"/>
		<path class="st9" d="M-1106,330.5c-2.2,0-3.8-0.5-4.8-1.6c-1.1-1.1-1.6-2.5-1.6-4.2c0-0.6,0.1-1.3,0.3-2.2l6.7-33.3h-7l1.2-6.3
			h3.6c1.7,0,2.9-0.3,3.5-1c0.6-0.7,1-1.8,1.3-3.5l1.8-8.7h6.5l-2.6,13.2h10.1l-1.2,6.3h-10.1l-7.1,35.1h9.3l-1.2,6.3H-1106z"/>
	</g>
	<g>
		<g>
			<path class="st13" d="M-1061.1,300.6l-11.2,10.7l-3.9,19.2h-10l12.9-64.4h10.1l-6.5,32h0.6l10.6-11.3l20.6-20.8h12.4l-27.9,27.9
				l16.8,36.5h-11L-1061.1,300.6z"/>
			<path class="st13" d="M-1012.4,331.6c-5.4,0-9.8-1.7-13.1-5.1s-5-8.3-5-14.8c0-4.1,0.6-8,1.8-11.7c1.2-3.7,2.9-6.9,5.1-9.7
				c2.2-2.8,4.8-4.9,7.8-6.5c3-1.6,6.3-2.4,10-2.4c5.4,0,9.8,1.7,13.1,5.1s5,8.3,5,14.8c0,4.2-0.6,8.1-1.8,11.8
				c-1.2,3.7-2.9,6.9-5.1,9.6c-2.2,2.8-4.8,5-7.8,6.5C-1005.4,330.8-1008.7,331.6-1012.4,331.6z M-1011.6,323.6c3,0,5.6-1.1,7.9-3.3
				c2.2-2.2,3.8-5.5,4.7-9.7l1.6-7.7c0.1-0.5,0.2-1.1,0.3-1.7c0.1-0.6,0.1-1.3,0.1-1.9c0-3-0.8-5.3-2.4-7.1c-1.6-1.8-3.9-2.6-7-2.6
				c-3,0-5.6,1.1-7.9,3.3c-2.2,2.2-3.8,5.5-4.7,9.7l-1.6,7.7c-0.1,0.6-0.2,1.1-0.3,1.7c-0.1,0.6-0.1,1.2-0.1,1.9
				c0,3,0.8,5.3,2.4,7.1C-1017,322.7-1014.7,323.6-1011.6,323.6z"/>
			<path class="st13" d="M-964.4,331.6c-3.8,0-7.4-0.7-10.7-2.2c-3.3-1.5-5.9-3.6-7.9-6.4l6.3-5.7c1.5,2,3.3,3.6,5.3,4.7
				c2,1.1,4.4,1.6,7.1,1.6c3.1,0,5.5-0.7,7.1-2c1.7-1.3,2.5-3.1,2.5-5.4c0-1.3-0.4-2.4-1.2-3.3c-0.8-0.9-2.4-1.6-4.7-2.1l-4.2-0.7
				c-3.9-0.7-7-2-9.3-3.9c-2.3-1.9-3.5-4.8-3.5-8.7c0-2.1,0.4-4.1,1.2-6.1c0.8-1.9,1.9-3.6,3.5-5.1c1.5-1.5,3.5-2.7,5.8-3.6
				c2.3-0.9,5.1-1.3,8.2-1.3c7.1,0,12.7,2.4,16.6,7.3l-6.3,5.7c-1.1-1.5-2.6-2.7-4.3-3.6c-1.8-0.9-4-1.4-6.5-1.4
				c-3,0-5.2,0.6-6.6,1.9c-1.4,1.3-2.2,2.9-2.2,4.9c0,1.3,0.4,2.5,1.2,3.4c0.8,0.9,2.4,1.6,4.7,2l4.2,0.6c4,0.7,7.1,2,9.4,4
				c2.3,2,3.4,4.9,3.4,8.8c0,2.4-0.4,4.6-1.3,6.6c-0.9,2-2.2,3.7-3.8,5.2c-1.7,1.5-3.7,2.6-6,3.5
				C-958.8,331.2-961.5,331.6-964.4,331.6z"/>
			<path class="st13" d="M-917.4,331.6c-5.4,0-9.8-1.7-13.1-5.1c-3.3-3.4-5-8.3-5-14.8c0-4.1,0.6-8,1.8-11.7
				c1.2-3.7,2.9-6.9,5.1-9.7c2.2-2.8,4.8-4.9,7.8-6.5c3-1.6,6.3-2.4,10-2.4c5.4,0,9.8,1.7,13.1,5.1s5,8.3,5,14.8
				c0,4.2-0.6,8.1-1.8,11.8c-1.2,3.7-2.9,6.9-5.1,9.6c-2.2,2.8-4.8,5-7.8,6.5C-910.4,330.8-913.7,331.6-917.4,331.6z M-916.6,323.6
				c3,0,5.6-1.1,7.9-3.3c2.2-2.2,3.8-5.5,4.7-9.7l1.6-7.7c0.1-0.5,0.2-1.1,0.3-1.7c0.1-0.6,0.1-1.3,0.1-1.9c0-3-0.8-5.3-2.4-7.1
				c-1.6-1.8-3.9-2.6-7-2.6c-3,0-5.6,1.1-7.9,3.3c-2.2,2.2-3.8,5.5-4.7,9.7l-1.6,7.7c-0.1,0.6-0.2,1.1-0.3,1.7
				c-0.1,0.6-0.1,1.2-0.1,1.9c0,3,0.8,5.3,2.4,7.1C-922,322.7-919.7,323.6-916.6,323.6z"/>
			<path class="st13" d="M-878.3,330.5l-6.7-48h9.4l2.7,21.3l1.8,17.9h0.5l8.4-17.9l11-21.3h10.2l-25.7,48H-878.3z"/>
			<path class="st13" d="M-823.5,331.6c-5.4,0-9.8-1.7-13.1-5.1c-3.3-3.4-5-8.3-5-14.8c0-4.1,0.6-8,1.8-11.7
				c1.2-3.7,2.9-6.9,5.1-9.7c2.2-2.8,4.8-4.9,7.8-6.5c3-1.6,6.3-2.4,10-2.4c5.4,0,9.8,1.7,13.1,5.1s5,8.3,5,14.8
				c0,4.2-0.6,8.1-1.8,11.8c-1.2,3.7-2.9,6.9-5.1,9.6c-2.2,2.8-4.8,5-7.8,6.5C-816.5,330.8-819.8,331.6-823.5,331.6z M-822.7,323.6
				c3,0,5.6-1.1,7.9-3.3c2.2-2.2,3.8-5.5,4.7-9.7l1.6-7.7c0.1-0.5,0.2-1.1,0.3-1.7c0.1-0.6,0.1-1.3,0.1-1.9c0-3-0.8-5.3-2.4-7.1
				c-1.6-1.8-3.9-2.6-7-2.6c-3,0-5.6,1.1-7.9,3.3c-2.2,2.2-3.8,5.5-4.7,9.7l-1.6,7.7c-0.1,0.6-0.2,1.1-0.3,1.7
				c-0.1,0.6-0.1,1.2-0.1,1.9c0,3,0.8,5.3,2.4,7.1C-828.1,322.7-825.8,323.6-822.7,323.6z"/>
		</g>
	</g>
	<g>
		<polygon class="st9" points="-918,234.4 -918.9,247.2 -906.9,251.9 -919.4,255.1 -920.2,267.9 -927.1,257 -939.5,260.2 
			-931.3,250.3 -938.2,239.5 -926.2,244.2 		"/>
		<polygon class="st9" points="-883,216.4 -888.8,227.9 -879.7,236.9 -892.4,235 -898.1,246.5 -900.2,233.8 -912.9,231.9 
			-901.5,226 -903.6,213.3 -894.4,222.3 		"/>
		<polygon class="st9" points="-843.8,213.7 -853.6,222 -848.7,233.8 -859.6,227.1 -869.4,235.4 -866.4,222.9 -877.3,216.2 
			-864.5,215.2 -861.5,202.7 -856.6,214.6 		"/>
		<polygon class="st9" points="-806.6,226.4 -818.9,230.2 -819,243.1 -826.4,232.6 -838.7,236.4 -831,226.1 -838.4,215.6 
			-826.3,219.8 -818.6,209.5 -818.8,222.3 		"/>
		<polygon class="st9" points="-777.3,252.7 -790.1,251.4 -795.3,263.2 -798,250.6 -810.8,249.4 -799.7,242.9 -802.4,230.3 
			-792.8,238.9 -781.8,232.4 -786.9,244.1 		"/>
		<polygon class="st9" points="-760.7,288.3 -771.9,282.1 -781.3,290.9 -778.9,278.3 -790.2,272.2 -777.4,270.5 -775,257.9 
			-769.5,269.5 -756.8,267.9 -766.2,276.7 		"/>
	</g>
</g>
<g>
	<g>
		<path class="st7" d="M-78,1569.2l-7.3-47.6h6.9l3.5,23.5l1.9,17.3h0.5l8.6-17.3l12.7-23.5h7.6l-26,47.6H-78z"/>
		<path class="st7" d="M-35.6,1569.2c-2.2,0-3.8-0.5-4.8-1.6c-1.1-1.1-1.6-2.5-1.6-4.2c0-0.6,0.1-1.3,0.3-2.2l7.9-39.6h7.1
			l-8.3,41.3h6.7l-1.2,6.3H-35.6z M-27.8,1510.5c-1.4,0-2.4-0.3-3-1c-0.6-0.6-0.9-1.4-0.9-2.3c0-0.2,0-0.4,0-0.8
			c0-0.3,0.1-0.9,0.3-1.8c0.2-1.2,0.8-2.1,1.5-2.7c0.8-0.6,1.9-1,3.5-1c1.4,0,2.4,0.3,3,1c0.6,0.6,0.9,1.4,0.9,2.3
			c0,0.2,0,0.4,0,0.8c0,0.3-0.1,0.9-0.3,1.8c-0.2,1.2-0.8,2.1-1.5,2.7C-25.1,1510.2-26.2,1510.5-27.8,1510.5z"/>
		<path class="st7" d="M-3.1,1570.4c-3.7,0-7.1-0.8-10.3-2.3c-3.2-1.5-5.8-3.7-7.7-6.4l4.9-4.3c1.7,2.2,3.6,3.9,5.7,5
			c2.2,1.2,4.6,1.7,7.4,1.7c3.1,0,5.7-0.7,7.7-2.2s3-3.7,3-6.6c0-1.6-0.5-2.9-1.4-4.1c-1-1.1-2.8-2-5.6-2.5l-3.6-0.7
			c-1.8-0.4-3.5-0.8-5-1.4c-1.6-0.6-2.9-1.4-4.1-2.3c-1.1-1-2-2.1-2.7-3.5c-0.6-1.4-1-3.1-1-5c0-2,0.4-3.9,1.1-5.7
			c0.7-1.8,1.8-3.4,3.3-4.8c1.5-1.4,3.3-2.5,5.5-3.3c2.2-0.8,4.8-1.2,7.7-1.2c3.5,0,6.5,0.6,9,1.8c2.5,1.2,4.7,2.9,6.5,5.2l-4.9,4.4
			c-1-1.5-2.5-2.7-4.2-3.7c-1.8-1-4.1-1.5-6.9-1.5c-3.5,0-6.1,0.8-7.7,2.3c-1.6,1.5-2.4,3.5-2.4,5.8c0,1.6,0.5,3,1.4,4.1
			c1,1.1,2.8,1.9,5.5,2.4l3.6,0.7c1.9,0.4,3.6,0.9,5.2,1.5c1.6,0.6,2.9,1.4,4,2.4c1.1,1,2,2.2,2.6,3.6c0.6,1.4,0.9,3.1,0.9,5.1
			c0,2.4-0.4,4.6-1.3,6.5c-0.9,1.9-2.1,3.6-3.7,4.9c-1.6,1.3-3.4,2.4-5.6,3.1C1.7,1570-0.6,1570.4-3.1,1570.4z"/>
		<path class="st7" d="M32.2,1569.2c-2.2,0-3.8-0.5-4.8-1.6c-1.1-1.1-1.6-2.5-1.6-4.2c0-0.6,0.1-1.3,0.3-2.2l7.9-39.6H41l-8.3,41.3
			h6.7l-1.2,6.3H32.2z M40,1510.5c-1.4,0-2.4-0.3-3-1c-0.6-0.6-0.9-1.4-0.9-2.3c0-0.2,0-0.4,0-0.8c0-0.3,0.1-0.9,0.3-1.8
			c0.2-1.2,0.8-2.1,1.5-2.7c0.8-0.6,1.9-1,3.5-1c1.4,0,2.4,0.3,3,1c0.6,0.6,0.9,1.4,0.9,2.3c0,0.2,0,0.4,0,0.8
			c0,0.3-0.1,0.9-0.3,1.8c-0.2,1.2-0.8,2.1-1.5,2.7C42.7,1510.2,41.6,1510.5,40,1510.5z"/>
		<path class="st7" d="M57.9,1569.2c-2.2,0-3.8-0.5-4.8-1.6c-1.1-1.1-1.6-2.5-1.6-4.2c0-0.6,0.1-1.3,0.3-2.2l6.7-33.3h-7l1.2-6.3
			h3.6c1.7,0,2.9-0.3,3.5-1c0.6-0.7,1-1.8,1.3-3.5l1.8-8.7h6.5l-2.6,13.2h10.1l-1.2,6.3H65.6l-7.1,35.1h9.3l-1.2,6.3H57.9z"/>
	</g>
	<g>
		<path class="st8" d="M102.8,1539.4l-11.2,10.7l-3.9,19.2h-10l12.9-64.4h10.1l-6.5,32h0.6l10.6-11.3l20.6-20.8h12.4l-27.9,27.9
			l16.8,36.5h-11L102.8,1539.4z"/>
		<path class="st8" d="M151.5,1570.4c-5.4,0-9.8-1.7-13.1-5.1s-5-8.3-5-14.8c0-4.1,0.6-8,1.8-11.7c1.2-3.7,2.9-6.9,5.1-9.7
			c2.2-2.8,4.8-4.9,7.8-6.5c3-1.6,6.3-2.4,10-2.4c5.4,0,9.8,1.7,13.1,5.1s5,8.3,5,14.8c0,4.2-0.6,8.1-1.8,11.8
			c-1.2,3.7-2.9,6.9-5.1,9.6c-2.2,2.8-4.8,5-7.8,6.5C158.5,1569.6,155.2,1570.4,151.5,1570.4z M152.3,1562.3c3,0,5.6-1.1,7.9-3.3
			c2.2-2.2,3.8-5.5,4.7-9.7l1.6-7.7c0.1-0.5,0.2-1.1,0.3-1.7c0.1-0.6,0.1-1.3,0.1-1.9c0-3-0.8-5.3-2.4-7.1c-1.6-1.8-3.9-2.6-7-2.6
			c-3,0-5.6,1.1-7.9,3.3c-2.2,2.2-3.8,5.5-4.7,9.7l-1.6,7.7c-0.1,0.6-0.2,1.1-0.3,1.7c-0.1,0.6-0.1,1.2-0.1,1.9c0,3,0.8,5.3,2.4,7.1
			C146.9,1561.4,149.2,1562.3,152.3,1562.3z"/>
		<path class="st8" d="M199.5,1570.4c-3.8,0-7.4-0.7-10.7-2.2c-3.3-1.5-5.9-3.6-7.9-6.4l6.3-5.7c1.5,2,3.3,3.6,5.3,4.7
			c2,1.1,4.4,1.6,7.1,1.6c3.1,0,5.5-0.7,7.1-2c1.7-1.3,2.5-3.1,2.5-5.4c0-1.3-0.4-2.4-1.2-3.3c-0.8-0.9-2.4-1.6-4.7-2.1l-4.2-0.7
			c-3.9-0.7-7-2-9.3-3.9c-2.3-1.9-3.5-4.8-3.5-8.7c0-2.1,0.4-4.1,1.2-6.1c0.8-1.9,1.9-3.6,3.5-5.1c1.5-1.5,3.5-2.7,5.8-3.6
			c2.3-0.9,5.1-1.3,8.2-1.3c7.1,0,12.7,2.4,16.6,7.3l-6.3,5.7c-1.1-1.5-2.6-2.7-4.3-3.6c-1.8-0.9-4-1.4-6.5-1.4
			c-3,0-5.2,0.6-6.6,1.9c-1.4,1.3-2.2,2.9-2.2,4.9c0,1.3,0.4,2.5,1.2,3.4c0.8,0.9,2.4,1.6,4.7,2l4.2,0.6c4,0.7,7.1,2,9.4,4
			c2.3,2,3.4,4.9,3.4,8.8c0,2.4-0.4,4.6-1.3,6.6c-0.9,2-2.2,3.7-3.8,5.2c-1.7,1.5-3.7,2.6-6,3.5
			C205.1,1569.9,202.5,1570.4,199.5,1570.4z"/>
		<path class="st8" d="M246.5,1570.4c-5.4,0-9.8-1.7-13.1-5.1c-3.3-3.4-5-8.3-5-14.8c0-4.1,0.6-8,1.8-11.7c1.2-3.7,2.9-6.9,5.1-9.7
			c2.2-2.8,4.8-4.9,7.8-6.5c3-1.6,6.3-2.4,10-2.4c5.4,0,9.8,1.7,13.1,5.1s5,8.3,5,14.8c0,4.2-0.6,8.1-1.8,11.8
			c-1.2,3.7-2.9,6.9-5.1,9.6c-2.2,2.8-4.8,5-7.8,6.5C253.5,1569.6,250.2,1570.4,246.5,1570.4z M247.3,1562.3c3,0,5.6-1.1,7.9-3.3
			c2.2-2.2,3.8-5.5,4.7-9.7l1.6-7.7c0.1-0.5,0.2-1.1,0.3-1.7c0.1-0.6,0.1-1.3,0.1-1.9c0-3-0.8-5.3-2.4-7.1c-1.6-1.8-3.9-2.6-7-2.6
			c-3,0-5.6,1.1-7.9,3.3c-2.2,2.2-3.8,5.5-4.7,9.7l-1.6,7.7c-0.1,0.6-0.2,1.1-0.3,1.7c-0.1,0.6-0.1,1.2-0.1,1.9c0,3,0.8,5.3,2.4,7.1
			C241.9,1561.4,244.2,1562.3,247.3,1562.3z"/>
		<path class="st8" d="M285.6,1569.2l-6.7-48h9.4l2.7,21.3l1.8,17.9h0.5l8.4-17.9l11-21.3h10.2l-25.7,48H285.6z"/>
		<path class="st8" d="M340.4,1570.4c-5.4,0-9.8-1.7-13.1-5.1c-3.3-3.4-5-8.3-5-14.8c0-4.1,0.6-8,1.8-11.7c1.2-3.7,2.9-6.9,5.1-9.7
			c2.2-2.8,4.8-4.9,7.8-6.5c3-1.6,6.3-2.4,10-2.4c5.4,0,9.8,1.7,13.1,5.1s5,8.3,5,14.8c0,4.2-0.6,8.1-1.8,11.8
			c-1.2,3.7-2.9,6.9-5.1,9.6c-2.2,2.8-4.8,5-7.8,6.5C347.4,1569.6,344.1,1570.4,340.4,1570.4z M341.2,1562.3c3,0,5.6-1.1,7.9-3.3
			c2.2-2.2,3.8-5.5,4.7-9.7l1.6-7.7c0.1-0.5,0.2-1.1,0.3-1.7c0.1-0.6,0.1-1.3,0.1-1.9c0-3-0.8-5.3-2.4-7.1c-1.6-1.8-3.9-2.6-7-2.6
			c-3,0-5.6,1.1-7.9,3.3c-2.2,2.2-3.8,5.5-4.7,9.7l-1.6,7.7c-0.1,0.6-0.2,1.1-0.3,1.7c-0.1,0.6-0.1,1.2-0.1,1.9c0,3,0.8,5.3,2.4,7.1
			C335.8,1561.4,338.1,1562.3,341.2,1562.3z"/>
	</g>
	<g>
		<polygon class="st7" points="245.9,1473.1 245,1485.9 257,1490.6 244.5,1493.8 243.7,1506.6 236.8,1495.8 224.4,1499 
			232.6,1489.1 225.7,1478.2 237.7,1483 		"/>
		<polygon class="st7" points="280.9,1455.2 275.1,1466.7 284.2,1475.7 271.6,1473.8 265.8,1485.2 263.7,1472.6 251,1470.6 
			262.4,1464.7 260.3,1452.1 269.5,1461.1 		"/>
		<polygon class="st7" points="320.1,1452.4 310.3,1460.7 315.2,1472.6 304.3,1465.8 294.5,1474.1 297.5,1461.7 286.6,1454.9 
			299.4,1454 302.4,1441.5 307.3,1453.4 		"/>
		<polygon class="st7" points="357.3,1465.1 345.1,1469 344.9,1481.8 337.5,1471.3 325.2,1475.2 332.9,1464.9 325.5,1454.4 
			337.6,1458.5 345.3,1448.2 345.2,1461 		"/>
		<polygon class="st7" points="386.6,1491.4 373.8,1490.2 368.6,1501.9 365.9,1489.4 353.1,1488.1 364.2,1481.6 361.5,1469.1 
			371.1,1477.6 382.1,1471.1 377,1482.9 		"/>
		<polygon class="st7" points="403.2,1527 392,1520.9 382.6,1529.7 385,1517.1 373.8,1510.9 386.5,1509.3 388.9,1496.7 
			394.4,1508.3 407.1,1506.6 397.8,1515.4 		"/>
	</g>
</g>
<g>
	<g>
		<path class="st11" d="M-1944.7,1825.1l-7.3-47.6h6.9l3.5,23.5l1.9,17.3h0.5l8.6-17.3l12.7-23.5h7.6l-26,47.6H-1944.7z"/>
		<path class="st11" d="M-1902.4,1825.1c-2.2,0-3.8-0.5-4.8-1.6c-1.1-1.1-1.6-2.5-1.6-4.2c0-0.6,0.1-1.3,0.3-2.2l7.9-39.6h7.1
			l-8.3,41.3h6.7l-1.2,6.3H-1902.4z M-1894.5,1766.4c-1.4,0-2.4-0.3-3-1c-0.6-0.6-0.9-1.4-0.9-2.3c0-0.2,0-0.4,0-0.8
			c0-0.3,0.1-0.9,0.3-1.8c0.2-1.2,0.8-2.1,1.5-2.7c0.8-0.6,1.9-1,3.5-1c1.4,0,2.4,0.3,3,1c0.6,0.6,0.9,1.4,0.9,2.3
			c0,0.2,0,0.4,0,0.8c0,0.3-0.1,0.9-0.3,1.8c-0.2,1.2-0.8,2.1-1.5,2.7C-1891.8,1766.1-1893,1766.4-1894.5,1766.4z"/>
		<path class="st11" d="M-1869.9,1826.3c-3.7,0-7.1-0.8-10.3-2.3c-3.2-1.5-5.8-3.7-7.7-6.4l4.9-4.3c1.7,2.2,3.6,3.9,5.7,5
			c2.2,1.2,4.6,1.7,7.4,1.7c3.1,0,5.7-0.7,7.7-2.2s3-3.7,3-6.6c0-1.6-0.5-2.9-1.4-4.1c-1-1.1-2.8-2-5.6-2.5l-3.6-0.7
			c-1.8-0.4-3.5-0.8-5-1.4c-1.6-0.6-2.9-1.4-4.1-2.3c-1.1-1-2-2.1-2.7-3.5c-0.6-1.4-1-3.1-1-5c0-2,0.4-3.9,1.1-5.7
			c0.7-1.8,1.8-3.4,3.3-4.8c1.5-1.4,3.3-2.5,5.5-3.3c2.2-0.8,4.8-1.2,7.7-1.2c3.5,0,6.5,0.6,9,1.8c2.5,1.2,4.7,2.9,6.5,5.2l-4.9,4.4
			c-1-1.5-2.5-2.7-4.2-3.7c-1.8-1-4.1-1.5-6.9-1.5c-3.5,0-6.1,0.8-7.7,2.3c-1.6,1.5-2.4,3.5-2.4,5.8c0,1.6,0.5,3,1.4,4.1
			c1,1.1,2.8,1.9,5.5,2.4l3.6,0.7c1.9,0.4,3.6,0.9,5.2,1.5c1.6,0.6,2.9,1.4,4,2.4c1.1,1,2,2.2,2.6,3.6c0.6,1.4,0.9,3.1,0.9,5.1
			c0,2.4-0.4,4.6-1.3,6.5c-0.9,1.9-2.1,3.6-3.7,4.9c-1.6,1.3-3.4,2.4-5.6,3.1C-1865.1,1825.9-1867.4,1826.3-1869.9,1826.3z"/>
		<path class="st11" d="M-1834.6,1825.1c-2.2,0-3.8-0.5-4.8-1.6c-1.1-1.1-1.6-2.5-1.6-4.2c0-0.6,0.1-1.3,0.3-2.2l7.9-39.6h7.1
			l-8.3,41.3h6.7l-1.2,6.3H-1834.6z M-1826.7,1766.4c-1.4,0-2.4-0.3-3-1c-0.6-0.6-0.9-1.4-0.9-2.3c0-0.2,0-0.4,0-0.8
			c0-0.3,0.1-0.9,0.3-1.8c0.2-1.2,0.8-2.1,1.5-2.7c0.8-0.6,1.9-1,3.5-1c1.4,0,2.4,0.3,3,1c0.6,0.6,0.9,1.4,0.9,2.3
			c0,0.2,0,0.4,0,0.8c0,0.3-0.1,0.9-0.3,1.8c-0.2,1.2-0.8,2.1-1.5,2.7C-1824.1,1766.1-1825.2,1766.4-1826.7,1766.4z"/>
		<path class="st11" d="M-1808.8,1825.1c-2.2,0-3.8-0.5-4.8-1.6c-1.1-1.1-1.6-2.5-1.6-4.2c0-0.6,0.1-1.3,0.3-2.2l6.7-33.3h-7
			l1.2-6.3h3.6c1.7,0,2.9-0.3,3.5-1c0.6-0.7,1-1.8,1.3-3.5l1.8-8.7h6.5l-2.6,13.2h10.1l-1.2,6.3h-10.1l-7.1,35.1h9.3l-1.2,6.3
			H-1808.8z"/>
	</g>
	<g>
		<path class="st14" d="M-1763.9,1795.3l-11.2,10.7l-3.9,19.2h-10l12.9-64.4h10.1l-6.5,32h0.6l10.6-11.3l20.6-20.8h12.4l-27.9,27.9
			l16.8,36.5h-11L-1763.9,1795.3z"/>
		<path class="st14" d="M-1715.2,1826.3c-5.4,0-9.8-1.7-13.1-5.1s-5-8.3-5-14.8c0-4.1,0.6-8,1.8-11.7c1.2-3.7,2.9-6.9,5.1-9.7
			c2.2-2.8,4.8-4.9,7.8-6.5c3-1.6,6.3-2.4,10-2.4c5.4,0,9.8,1.7,13.1,5.1s5,8.3,5,14.8c0,4.2-0.6,8.1-1.8,11.8
			c-1.2,3.7-2.9,6.9-5.1,9.6c-2.2,2.8-4.8,5-7.8,6.5C-1708.3,1825.5-1711.6,1826.3-1715.2,1826.3z M-1714.5,1818.2
			c3,0,5.6-1.1,7.9-3.3c2.2-2.2,3.8-5.5,4.7-9.7l1.6-7.7c0.1-0.5,0.2-1.1,0.3-1.7c0.1-0.6,0.1-1.3,0.1-1.9c0-3-0.8-5.3-2.4-7.1
			c-1.6-1.8-3.9-2.6-7-2.6c-3,0-5.6,1.1-7.9,3.3c-2.2,2.2-3.8,5.5-4.7,9.7l-1.6,7.7c-0.1,0.6-0.2,1.1-0.3,1.7
			c-0.1,0.6-0.1,1.2-0.1,1.9c0,3,0.8,5.3,2.4,7.1C-1719.9,1817.3-1717.6,1818.2-1714.5,1818.2z"/>
		<path class="st14" d="M-1667.3,1826.3c-3.8,0-7.4-0.7-10.7-2.2c-3.3-1.5-5.9-3.6-7.9-6.4l6.3-5.7c1.5,2,3.3,3.6,5.3,4.7
			c2,1.1,4.4,1.6,7.1,1.6c3.1,0,5.5-0.7,7.1-2c1.7-1.3,2.5-3.1,2.5-5.4c0-1.3-0.4-2.4-1.2-3.3c-0.8-0.9-2.4-1.6-4.7-2.1l-4.2-0.7
			c-3.9-0.7-7-2-9.3-3.9c-2.3-1.9-3.5-4.8-3.5-8.7c0-2.1,0.4-4.1,1.2-6.1c0.8-1.9,1.9-3.6,3.5-5.1c1.5-1.5,3.5-2.7,5.8-3.6
			c2.3-0.9,5.1-1.3,8.2-1.3c7.1,0,12.7,2.4,16.6,7.3l-6.3,5.7c-1.1-1.5-2.6-2.7-4.3-3.6c-1.8-0.9-4-1.4-6.5-1.4
			c-3,0-5.2,0.6-6.6,1.9c-1.4,1.3-2.2,2.9-2.2,4.9c0,1.3,0.4,2.5,1.2,3.4c0.8,0.9,2.4,1.6,4.7,2l4.2,0.6c4,0.7,7.1,2,9.4,4
			c2.3,2,3.4,4.9,3.4,8.8c0,2.4-0.4,4.6-1.3,6.6c-0.9,2-2.2,3.7-3.8,5.2c-1.7,1.5-3.7,2.6-6,3.5
			C-1661.6,1825.8-1664.3,1826.3-1667.3,1826.3z"/>
		<path class="st14" d="M-1620.2,1826.3c-5.4,0-9.8-1.7-13.1-5.1c-3.3-3.4-5-8.3-5-14.8c0-4.1,0.6-8,1.8-11.7
			c1.2-3.7,2.9-6.9,5.1-9.7c2.2-2.8,4.8-4.9,7.8-6.5c3-1.6,6.3-2.4,10-2.4c5.4,0,9.8,1.7,13.1,5.1s5,8.3,5,14.8
			c0,4.2-0.6,8.1-1.8,11.8c-1.2,3.7-2.9,6.9-5.1,9.6c-2.2,2.8-4.8,5-7.8,6.5C-1613.3,1825.5-1616.6,1826.3-1620.2,1826.3z
			 M-1619.5,1818.2c3,0,5.6-1.1,7.9-3.3c2.2-2.2,3.8-5.5,4.7-9.7l1.6-7.7c0.1-0.5,0.2-1.1,0.3-1.7c0.1-0.6,0.1-1.3,0.1-1.9
			c0-3-0.8-5.3-2.4-7.1c-1.6-1.8-3.9-2.6-7-2.6c-3,0-5.6,1.1-7.9,3.3c-2.2,2.2-3.8,5.5-4.7,9.7l-1.6,7.7c-0.1,0.6-0.2,1.1-0.3,1.7
			c-0.1,0.6-0.1,1.2-0.1,1.9c0,3,0.8,5.3,2.4,7.1C-1624.9,1817.3-1622.6,1818.2-1619.5,1818.2z"/>
		<path class="st14" d="M-1581.2,1825.1l-6.7-48h9.4l2.7,21.3l1.8,17.9h0.5l8.4-17.9l11-21.3h10.2l-25.7,48H-1581.2z"/>
		<path class="st14" d="M-1526.3,1826.3c-5.4,0-9.8-1.7-13.1-5.1c-3.3-3.4-5-8.3-5-14.8c0-4.1,0.6-8,1.8-11.7
			c1.2-3.7,2.9-6.9,5.1-9.7c2.2-2.8,4.8-4.9,7.8-6.5c3-1.6,6.3-2.4,10-2.4c5.4,0,9.8,1.7,13.1,5.1s5,8.3,5,14.8
			c0,4.2-0.6,8.1-1.8,11.8c-1.2,3.7-2.9,6.9-5.1,9.6c-2.2,2.8-4.8,5-7.8,6.5C-1519.4,1825.5-1522.7,1826.3-1526.3,1826.3z
			 M-1525.6,1818.2c3,0,5.6-1.1,7.9-3.3c2.2-2.2,3.8-5.5,4.7-9.7l1.6-7.7c0.1-0.5,0.2-1.1,0.3-1.7c0.1-0.6,0.1-1.3,0.1-1.9
			c0-3-0.8-5.3-2.4-7.1c-1.6-1.8-3.9-2.6-7-2.6c-3,0-5.6,1.1-7.9,3.3c-2.2,2.2-3.8,5.5-4.7,9.7l-1.6,7.7c-0.1,0.6-0.2,1.1-0.3,1.7
			c-0.1,0.6-0.1,1.2-0.1,1.9c0,3,0.8,5.3,2.4,7.1C-1531,1817.3-1528.7,1818.2-1525.6,1818.2z"/>
	</g>
	<g>
		<polygon class="st11" points="-1620.9,1729 -1621.7,1741.8 -1609.8,1746.5 -1622.2,1749.7 -1623.1,1762.5 -1629.9,1751.7 
			-1642.4,1754.9 -1634.2,1745 -1641,1734.1 -1629.1,1738.9 		"/>
		<polygon class="st11" points="-1585.9,1711.1 -1591.6,1722.6 -1582.5,1731.6 -1595.2,1729.7 -1601,1741.1 -1603.1,1728.5 
			-1615.7,1726.5 -1604.3,1720.6 -1606.4,1708 -1597.3,1717 		"/>
		<polygon class="st11" points="-1546.6,1708.3 -1556.4,1716.6 -1551.6,1728.5 -1562.5,1721.7 -1572.3,1730 -1569.2,1717.6 
			-1580.2,1710.8 -1567.4,1709.9 -1564.3,1697.4 -1559.5,1709.3 		"/>
		<polygon class="st11" points="-1509.4,1721 -1521.7,1724.9 -1521.9,1737.7 -1529.3,1727.2 -1541.5,1731.1 -1533.9,1720.8 
			-1541.3,1710.3 -1529.1,1714.4 -1521.5,1704.1 -1521.6,1716.9 		"/>
		<polygon class="st11" points="-1480.2,1747.3 -1493,1746.1 -1498.1,1757.8 -1500.9,1745.3 -1513.6,1744 -1502.5,1737.5 
			-1505.3,1725 -1495.7,1733.5 -1484.6,1727 -1489.8,1738.8 		"/>
		<polygon class="st11" points="-1463.5,1782.9 -1474.8,1776.8 -1484.1,1785.6 -1481.7,1773 -1493,1766.8 -1480.3,1765.2 
			-1477.9,1752.6 -1472.4,1764.2 -1459.7,1762.5 -1469,1771.3 		"/>
	</g>
</g>
<text transform="matrix(1 0 0 1 -1498.7534 1272.182)"><tspan x="0" y="0" style="font-family:'MyriadPro-Regular'; font-size:12px;">Electric Purple (#8A56AC) – Fun &amp; unique</tspan><tspan x="0" y="14.4" style="font-family:'MyriadPro-Regular'; font-size:12px;">Bright Cyan (#00D9F5) – Fresh and inviting</tspan><tspan x="0" y="28.8" style="font-family:'MyriadPro-Regular'; font-size:12px;">Soft Peach (#FFC4A3) – Warm and friendly</tspan><tspan x="0" y="43.2" style="font-family:'MyriadPro-Regular'; font-size:12px;">Midnight Navy (#1E2952) – A sophisticated contrast</tspan></text>
<g>
	<rect x="-1893.1" y="-90.4" class="st15" width="52.3" height="52.3"/>
	<rect x="-1829.6" y="-90.4" class="st16" width="52.3" height="52.3"/>
	<rect x="-1766.1" y="-90.4" class="st17" width="52.3" height="52.3"/>
	<rect x="-1702.7" y="-90.4" class="st18" width="52.3" height="52.3"/>
</g>
<g>
	<rect x="-1214.9" y="872.1" class="st9" width="136.6" height="143.6"/>
	<rect x="-1372.1" y="872.1" class="st13" width="136.6" height="143.6"/>
	<rect x="-1529.4" y="872.1" class="st19" width="136.6" height="143.6"/>
	<rect x="-1057.7" y="872.1" class="st10" width="136.6" height="143.6"/>
	<rect x="-900.5" y="872.1" class="st7" width="136.6" height="143.6"/>
	<rect x="-743.2" y="872.1" class="st20" width="136.6" height="143.6"/>
	<rect x="-586" y="872.1" class="st21" width="136.6" height="143.6"/>
</g>
<image style="overflow:visible;" width="1600" height="2400" xlink:href="D:\AdobeColor-Tourpack _ mascot.jpeg"  transform="matrix(0.2126 0 0 0.2126 -1997.9011 877.4067)">
</image>
<text transform="matrix(1 0 0 1 -918.2379 12.9128)" class="st14" style="font-family:'MyriadPro-Regular'; font-size:19.253px;">Home</text>
<text transform="matrix(1 0 0 1 -837.5251 12.9128)" style="fill:#0F0F0F; font-family:'MyriadPro-Regular'; font-size:19.253px;">Home</text>
<text transform="matrix(1 0 0 1 -756.8122 12.9128)" style="fill:#0F0F0F; font-family:'MyriadPro-Regular'; font-size:19.253px;">Home</text>
<text transform="matrix(1 0 0 1 -676.0994 12.9128)" style="fill:#0F0F0F; font-family:'MyriadPro-Regular'; font-size:19.253px;">Home</text>
<text transform="matrix(1 0 0 1 -595.3865 12.9128)" style="fill:#0F0F0F; font-family:'MyriadPro-Regular'; font-size:19.253px;">Home</text>
<rect x="-928.3" y="24.4" class="st14" width="68.7" height="1.2"/>
<image style="overflow:visible;" width="222" height="52" xlink:href="52646A4.jpg"  transform="matrix(1 0 0 1 -1850.813 414.1895)">
</image>
<g>
	<g>
		<path class="st7" d="M195,1765.5c4.9-2.6,9.7-5.1,14.2-8.4c3.7-2.7,7.2-5.7,10.4-9.1c6.4-6.8,11.6-14.7,15.6-23.1
			c9.1-19,11.9-40.2,11.9-61.1c0-13.1-0.9-26.1-1.9-39.2c-0.1-1.9-3.1-1.9-3,0c1.7,22.6,3.4,45.6-0.3,68.1
			c-3,18.2-9.9,36.3-22.1,50.5c-3.3,3.8-7,7.4-11,10.4c-4.8,3.6-10.1,6.5-15.5,9.3C191.7,1763.8,193.2,1766.4,195,1765.5L195,1765.5
			z"/>
	</g>
</g>
<g>
	<g>
		<path class="st7" d="M230.5,1643.2c0.2-7.1,0.9-14.1,2.2-21c0.3-1.6,0.6-3.1,1-4.7c0.1-0.6,0.2-2,0.7-2.4c0.4-0.4,0.9-0.1,1.3,0.2
			c1,0.7,1.7,1.8,2.5,2.8c1,1.2,2,2.4,3,3.6c7.8,9,16.9,16.8,27.1,23.1c5.7,3.5,11.6,6.5,17.8,9c1.8,0.7,2.6-2.2,0.8-2.9
			c-11.8-4.7-22.7-11.5-32.2-19.8c-4.7-4.1-9.1-8.6-13.1-13.5c-1.7-2.1-3.5-5.3-6.4-5.7c-3.7-0.4-4.2,4.1-4.8,6.7
			c-1.8,8.1-2.7,16.4-2.9,24.6C227.5,1645.1,230.5,1645.1,230.5,1643.2L230.5,1643.2z"/>
	</g>
</g>
<path class="st7" d="M35.3,40.3H5c-2.8,0-5-2.2-5-5V5c0-2.8,2.2-5,5-5h30.3c2.8,0,5,2.2,5,5v30.3C40.3,38.1,38.1,40.3,35.3,40.3z"/>
<polygon class="st9" points="20.2,5.1 23.9,16.6 36,16.6 26.2,23.7 29.9,35.2 20.2,28.1 10.4,35.2 14.1,23.7 4.3,16.6 16.4,16.6 "/>
<path class="st9" d="M62.4,44.8l-3.5,3.3l-1.2,6h-3.1l4-20.1h3.1l-2,10h0.2l3.3-3.5l6.4-6.5h3.9l-8.7,8.7l5.3,11.4h-3.4L62.4,44.8z"
	/>
<g>
	<polygon class="st9" points="84.7,92.7 91.6,100.6 101.3,96.4 95.9,105.4 102.8,113.3 92.6,111 87.3,120 86.3,109.6 76.1,107.3 
		85.7,103.1 	"/>
	<polygon class="st9" points="94.6,62.1 97.9,72.1 108.4,72 99.9,78.2 103.2,88.2 94.7,82.1 86.3,88.3 89.4,78.3 80.9,72.2 
		91.4,72.1 	"/>
	<polygon class="st9" points="115.6,37.9 114.8,48.3 124.4,52.4 114.2,54.8 113.4,65.2 107.9,56.3 97.7,58.7 104.6,50.8 99.1,41.8 
		108.8,45.8 	"/>
	<polygon class="st9" points="144.4,23.8 139.6,33.1 146.9,40.6 136.6,38.8 131.7,48.1 130.2,37.7 119.9,36 129.2,31.3 127.7,20.9 
		135,28.4 	"/>
	<polygon class="st9" points="176.5,22.1 168.4,28.7 172.2,38.5 163.4,32.8 155.3,39.4 157.9,29.3 149.1,23.7 159.6,23 162.2,12.9 
		166,22.7 	"/>
	<polygon class="st9" points="206.7,33 196.6,35.9 196.3,46.4 190.4,37.8 180.3,40.7 186.7,32.4 180.8,23.8 190.7,27.3 197.1,19 
		196.8,29.5 	"/>
</g>
</svg>
