<?xml version="1.0" encoding="utf-8"?>
<!-- Generator: Adobe Illustrator 26.0.2, SVG Export Plug-In . SVG Version: 6.00 Build 0)  -->
<svg version="1.1" id="Layer_1" xmlns="http://www.w3.org/2000/svg" xmlns:xlink="http://www.w3.org/1999/xlink" x="0px" y="0px"
	 viewBox="0 0 154.1 40.3" style="enable-background:new 0 0 154.1 40.3;" xml:space="preserve">
<style type="text/css">
	.st0{fill:#DDC047;}
	.st1{fill:none;stroke:#DDC047;stroke-width:1.0188;stroke-miterlimit:10;}
	.st2{fill:none;stroke:#283EBF;stroke-miterlimit:10;}
	.st3{fill:#D0A650;}
	.st4{fill:#244AA5;}
	.st5{fill:#00089E;}
	.st6{fill:#2FBBF7;}
	.st7{fill:#0A3232;}
	.st8{fill:#CFD845;}
	.st9{fill:#50A517;}
	.st10{fill:#2F42F4;}
	.st11{fill:#0810A6;}
	.st12{fill:#C8E1AF;}
	.st13{fill:#55A603;}
	.st14{fill:#8A56AC;}
	.st15{fill:#00D9F5;}
	.st16{fill:#FFC4A3;}
	.st17{fill:#1E2952;}
	.st18{fill:#F26B9A;}
	.st19{fill:#F0F0EE;}
	.st20{fill:#F0801F;}
</style>
<g>
	<g>
		<path class="st7" d="M2.3,40L0,25.1h2.2l1.1,7.4l0.6,5.4H4l2.7-5.4l4-7.4H13L4.9,40H2.3z"/>
		<path class="st7" d="M15.5,40c-0.7,0-1.2-0.2-1.5-0.5c-0.3-0.3-0.5-0.8-0.5-1.3c0-0.2,0-0.4,0.1-0.7l2.5-12.4h2.2L15.7,38h2.1
			l-0.4,2H15.5z M18,21.6c-0.4,0-0.8-0.1-0.9-0.3c-0.2-0.2-0.3-0.4-0.3-0.7c0-0.1,0-0.1,0-0.2c0-0.1,0-0.3,0.1-0.6
			c0.1-0.4,0.2-0.6,0.5-0.9c0.2-0.2,0.6-0.3,1.1-0.3c0.4,0,0.8,0.1,0.9,0.3c0.2,0.2,0.3,0.4,0.3,0.7c0,0.1,0,0.1,0,0.2
			c0,0.1,0,0.3-0.1,0.6c-0.1,0.4-0.2,0.6-0.5,0.9C18.8,21.5,18.5,21.6,18,21.6z"/>
		<path class="st7" d="M25.7,40.3c-1.2,0-2.2-0.2-3.2-0.7c-1-0.5-1.8-1.1-2.4-2l1.5-1.4c0.5,0.7,1.1,1.2,1.8,1.6
			c0.7,0.4,1.4,0.5,2.3,0.5c1,0,1.8-0.2,2.4-0.7c0.6-0.5,1-1.2,1-2.1c0-0.5-0.1-0.9-0.4-1.3c-0.3-0.4-0.9-0.6-1.7-0.8l-1.1-0.2
			c-0.6-0.1-1.1-0.3-1.6-0.4c-0.5-0.2-0.9-0.4-1.3-0.7c-0.4-0.3-0.6-0.7-0.8-1.1c-0.2-0.4-0.3-1-0.3-1.6c0-0.6,0.1-1.2,0.3-1.8
			c0.2-0.6,0.6-1.1,1-1.5c0.5-0.4,1-0.8,1.7-1c0.7-0.3,1.5-0.4,2.4-0.4c1.1,0,2,0.2,2.8,0.6c0.8,0.4,1.5,0.9,2,1.6l-1.5,1.4
			c-0.3-0.5-0.8-0.8-1.3-1.1c-0.6-0.3-1.3-0.5-2.2-0.5c-1.1,0-1.9,0.2-2.4,0.7c-0.5,0.5-0.8,1.1-0.8,1.8c0,0.5,0.1,0.9,0.4,1.3
			c0.3,0.3,0.9,0.6,1.7,0.8l1.1,0.2c0.6,0.1,1.1,0.3,1.6,0.5c0.5,0.2,0.9,0.4,1.3,0.8c0.3,0.3,0.6,0.7,0.8,1.1
			c0.2,0.4,0.3,1,0.3,1.6c0,0.8-0.1,1.4-0.4,2c-0.3,0.6-0.7,1.1-1.2,1.5c-0.5,0.4-1.1,0.7-1.7,1C27.2,40.2,26.5,40.3,25.7,40.3z"/>
		<path class="st7" d="M36.7,40c-0.7,0-1.2-0.2-1.5-0.5c-0.3-0.3-0.5-0.8-0.5-1.3c0-0.2,0-0.4,0.1-0.7l2.5-12.4h2.2L36.9,38H39
			l-0.4,2H36.7z M39.2,21.6c-0.4,0-0.8-0.1-0.9-0.3c-0.2-0.2-0.3-0.4-0.3-0.7c0-0.1,0-0.1,0-0.2c0-0.1,0-0.3,0.1-0.6
			c0.1-0.4,0.2-0.6,0.5-0.9c0.2-0.2,0.6-0.3,1.1-0.3c0.4,0,0.8,0.1,0.9,0.3c0.2,0.2,0.3,0.4,0.3,0.7c0,0.1,0,0.1,0,0.2
			c0,0.1,0,0.3-0.1,0.6c-0.1,0.4-0.2,0.6-0.5,0.9C40,21.5,39.7,21.6,39.2,21.6z"/>
		<path class="st7" d="M44.8,40c-0.7,0-1.2-0.2-1.5-0.5c-0.3-0.3-0.5-0.8-0.5-1.3c0-0.2,0-0.4,0.1-0.7L45,27h-2.2l0.4-2h1.1
			c0.5,0,0.9-0.1,1.1-0.3c0.2-0.2,0.3-0.6,0.4-1.1l0.5-2.7h2l-0.8,4.1h3.1l-0.4,2h-3.1L45,38h2.9l-0.4,2H44.8z"/>
	</g>
	<g>
		<path class="st8" d="M58.9,30.6L55.4,34l-1.2,6H51l4-20.1h3.1l-2,10h0.2l3.3-3.5l6.4-6.5H70l-8.7,8.7L66.5,40h-3.4L58.9,30.6z"/>
		<path class="st8" d="M74.1,40.3c-1.7,0-3.1-0.5-4.1-1.6s-1.6-2.6-1.6-4.6c0-1.3,0.2-2.5,0.6-3.7c0.4-1.2,0.9-2.2,1.6-3
			c0.7-0.9,1.5-1.5,2.4-2c0.9-0.5,2-0.8,3.1-0.8c1.7,0,3.1,0.5,4.1,1.6s1.6,2.6,1.6,4.6c0,1.3-0.2,2.5-0.6,3.7
			c-0.4,1.1-0.9,2.2-1.6,3c-0.7,0.9-1.5,1.5-2.4,2C76.3,40.1,75.2,40.3,74.1,40.3z M74.3,37.8c0.9,0,1.8-0.3,2.5-1
			c0.7-0.7,1.2-1.7,1.5-3l0.5-2.4c0-0.2,0.1-0.3,0.1-0.5c0-0.2,0-0.4,0-0.6c0-0.9-0.2-1.7-0.7-2.2c-0.5-0.6-1.2-0.8-2.2-0.8
			c-0.9,0-1.8,0.3-2.5,1c-0.7,0.7-1.2,1.7-1.5,3l-0.5,2.4c0,0.2-0.1,0.4-0.1,0.5c0,0.2,0,0.4,0,0.6c0,0.9,0.2,1.7,0.7,2.2
			C72.6,37.5,73.4,37.8,74.3,37.8z"/>
		<path class="st8" d="M89.1,40.3c-1.2,0-2.3-0.2-3.3-0.7c-1-0.5-1.9-1.1-2.5-2l2-1.8c0.5,0.6,1,1.1,1.7,1.5
			c0.6,0.3,1.4,0.5,2.2,0.5c1,0,1.7-0.2,2.2-0.6c0.5-0.4,0.8-1,0.8-1.7c0-0.4-0.1-0.7-0.4-1c-0.3-0.3-0.7-0.5-1.5-0.6L89,33.6
			c-1.2-0.2-2.2-0.6-2.9-1.2c-0.7-0.6-1.1-1.5-1.1-2.7c0-0.7,0.1-1.3,0.4-1.9c0.2-0.6,0.6-1.1,1.1-1.6c0.5-0.5,1.1-0.8,1.8-1.1
			c0.7-0.3,1.6-0.4,2.6-0.4c2.2,0,4,0.8,5.2,2.3l-2,1.8c-0.3-0.5-0.8-0.8-1.4-1.1c-0.6-0.3-1.2-0.4-2-0.4c-0.9,0-1.6,0.2-2.1,0.6
			c-0.5,0.4-0.7,0.9-0.7,1.5c0,0.4,0.1,0.8,0.4,1.1c0.3,0.3,0.7,0.5,1.5,0.6l1.3,0.2c1.3,0.2,2.2,0.6,2.9,1.2
			c0.7,0.6,1.1,1.5,1.1,2.7c0,0.8-0.1,1.4-0.4,2.1c-0.3,0.6-0.7,1.2-1.2,1.6c-0.5,0.5-1.1,0.8-1.9,1.1C90.9,40.2,90,40.3,89.1,40.3z
			"/>
		<path class="st8" d="M103.8,40.3c-1.7,0-3.1-0.5-4.1-1.6c-1-1.1-1.6-2.6-1.6-4.6c0-1.3,0.2-2.5,0.6-3.7c0.4-1.2,0.9-2.2,1.6-3
			c0.7-0.9,1.5-1.5,2.4-2c0.9-0.5,2-0.8,3.1-0.8c1.7,0,3.1,0.5,4.1,1.6c1,1.1,1.6,2.6,1.6,4.6c0,1.3-0.2,2.5-0.6,3.7
			c-0.4,1.1-0.9,2.2-1.6,3c-0.7,0.9-1.5,1.5-2.4,2C106,40.1,105,40.3,103.8,40.3z M104.1,37.8c0.9,0,1.8-0.3,2.5-1
			c0.7-0.7,1.2-1.7,1.5-3l0.5-2.4c0-0.2,0.1-0.3,0.1-0.5c0-0.2,0-0.4,0-0.6c0-0.9-0.2-1.7-0.7-2.2c-0.5-0.6-1.2-0.8-2.2-0.8
			c-0.9,0-1.8,0.3-2.5,1c-0.7,0.7-1.2,1.7-1.5,3l-0.5,2.4c0,0.2-0.1,0.4-0.1,0.5c0,0.2,0,0.4,0,0.6c0,0.9,0.2,1.7,0.7,2.2
			C102.4,37.5,103.1,37.8,104.1,37.8z"/>
		<path class="st8" d="M116,40l-2.1-15h2.9l0.8,6.7l0.5,5.6h0.1l2.6-5.6l3.4-6.7h3.2l-8.1,15H116z"/>
		<path class="st8" d="M133.2,40.3c-1.7,0-3.1-0.5-4.1-1.6c-1-1.1-1.6-2.6-1.6-4.6c0-1.3,0.2-2.5,0.6-3.7c0.4-1.2,0.9-2.2,1.6-3
			c0.7-0.9,1.5-1.5,2.4-2c0.9-0.5,2-0.8,3.1-0.8c1.7,0,3.1,0.5,4.1,1.6s1.6,2.6,1.6,4.6c0,1.3-0.2,2.5-0.6,3.7
			c-0.4,1.1-0.9,2.2-1.6,3c-0.7,0.9-1.5,1.5-2.4,2C135.4,40.1,134.3,40.3,133.2,40.3z M133.4,37.8c0.9,0,1.8-0.3,2.5-1
			c0.7-0.7,1.2-1.7,1.5-3l0.5-2.4c0-0.2,0.1-0.3,0.1-0.5c0-0.2,0-0.4,0-0.6c0-0.9-0.2-1.7-0.7-2.2c-0.5-0.6-1.2-0.8-2.2-0.8
			c-0.9,0-1.8,0.3-2.5,1c-0.7,0.7-1.2,1.7-1.5,3l-0.5,2.4c0,0.2-0.1,0.4-0.1,0.5c0,0.2,0,0.4,0,0.6c0,0.9,0.2,1.7,0.7,2.2
			C131.8,37.5,132.5,37.8,133.4,37.8z"/>
	</g>
	<g>
		<polygon class="st7" points="103.6,9.9 103.4,13.9 107.1,15.4 103.2,16.4 102.9,20.4 100.8,17 96.9,18 99.5,14.9 97.3,11.5 
			101,13 		"/>
		<polygon class="st7" points="114.6,4.3 112.8,7.9 115.6,10.7 111.7,10.1 109.8,13.7 109.2,9.7 105.2,9.1 108.8,7.3 108.1,3.3 
			111,6.1 		"/>
		<polygon class="st7" points="126.8,3.4 123.8,6 125.3,9.7 121.9,7.6 118.8,10.2 119.8,6.3 116.4,4.2 120.4,3.9 121.3,0 122.8,3.7 
					"/>
		<polygon class="st7" points="138.5,7.4 134.7,8.6 134.6,12.6 132.3,9.3 128.4,10.5 130.8,7.3 128.5,4 132.3,5.3 134.7,2.1 
			134.7,6.1 		"/>
		<polygon class="st7" points="147.6,15.6 143.7,15.2 142,18.9 141.2,15 137.2,14.6 140.6,12.6 139.8,8.6 142.8,11.3 146.3,9.3 
			144.6,13 		"/>
		<polygon class="st7" points="152.9,26.8 149.3,24.8 146.4,27.6 147.2,23.7 143.6,21.7 147.6,21.2 148.4,17.3 150.1,20.9 
			154.1,20.4 151.1,23.1 		"/>
	</g>
</g>
</svg>
